<svg width="40" height="26" viewBox="0 0 40 26" fill="none" xmlns="http://www.w3.org/2000/svg">
<path d="M35.3466 19.099C35.1856 19.099 35.0419 19.099 34.9135 19.0838C34.6414 19.0675 34.3683 19.0513 34.0951 19.0513C33.9188 19.0513 33.9188 19.0513 33.9036 18.8758L33.6468 15.9703L33.39 13.5599L33.2137 12.0757L33.0537 10.7822L32.7642 8.77045C32.6699 8.0533 32.5523 7.33937 32.4116 6.62978C32.3953 6.5182 32.3953 6.50195 32.5237 6.48678C33.0258 6.39072 33.536 6.34247 34.0473 6.3427H34.2236C34.3041 6.35895 34.352 6.40662 34.3683 6.50195L34.4325 7.6037L34.8819 13.5588L35.1061 16.2888L35.2498 17.8531L35.3466 19.099ZM15.6855 6.34487H15.9738C16.1186 6.34487 16.1501 6.39253 16.1501 6.53662L16.2786 8.4682L16.568 12.4755L16.7443 14.5663L16.8716 16.1794L17.1285 18.957C17.1285 19.0849 17.1132 19.1011 16.9848 19.1011L15.8302 19.0524C15.7497 19.0686 15.7018 19.0199 15.7018 18.9408L15.6539 18.3818C15.6025 17.8987 15.5597 17.4147 15.5255 16.9301L15.2687 14.407L14.9966 12.1245L14.8029 10.5114L14.5951 9.04237C14.4958 8.38139 14.3888 7.7216 14.274 7.06312L14.1935 6.61678C14.1783 6.53662 14.1935 6.50412 14.274 6.48895C14.7235 6.40878 15.1555 6.32862 15.6855 6.34487ZM31.8186 12.7788C32.219 12.7788 32.268 12.795 32.3322 13.1775C32.412 13.6563 32.4758 14.1351 32.5237 14.614L32.7 16.1631L33.0374 19.4521C33.0537 19.5312 33.0374 19.5637 32.9568 19.5637L31.7054 19.7078C31.5781 19.723 31.5454 19.7078 31.5302 19.58L30.8076 15.9075L30.3592 13.4656L30.2939 13.1298C30.2787 13.0659 30.3113 13.0182 30.3756 13.002C30.8503 12.8919 31.3326 12.8173 31.8186 12.7788ZM13.5841 12.7788C14.0172 12.7625 14.0662 12.8113 14.1141 13.21C14.2261 13.8643 14.3067 14.5024 14.3709 15.1578L14.5787 17.0731L14.7071 18.3666L14.8192 19.4034C14.8192 19.5475 14.8029 19.58 14.6756 19.5951L13.4894 19.7078C13.3599 19.723 13.3283 19.7078 13.312 19.58L12.3337 14.5663L12.0769 13.146C12.0616 13.0666 12.0939 13.0186 12.1737 13.002C12.6378 12.8935 13.1091 12.8189 13.5841 12.7788ZM19.7108 17.7275V19.7706C19.7272 19.867 19.6782 19.9147 19.5824 19.8985H19.1972C18.9251 19.8985 18.6531 19.9147 18.3799 19.931C18.2352 19.9472 18.2189 19.9472 18.2036 19.7706L17.9468 16.8976L17.8184 15.4763L17.6258 13.3053C17.6095 13.1298 17.6421 13.0973 17.7858 13.0821C18.2336 13.0405 18.6837 13.0296 19.133 13.0496L19.4703 13.0973C19.5988 13.146 19.614 13.1623 19.614 13.289L19.663 14.1514L19.6782 15.109C19.6945 15.9865 19.7108 16.85 19.7108 17.7275ZM37.9127 17.8228V19.7869C37.9127 19.867 37.88 19.9147 37.8006 19.8985H37.2238C37.004 19.901 36.7844 19.9118 36.5654 19.931C36.437 19.9472 36.4207 19.931 36.4044 19.7869L36.0681 16.0515L35.8918 14.199L35.8276 13.2576C35.8113 13.1298 35.8439 13.0973 35.9723 13.0973C36.5042 13.0288 37.0423 13.0237 37.5753 13.0821C37.7843 13.0973 37.8158 13.1623 37.8321 13.3692L37.88 15.4925L37.9127 17.8228ZM31.3539 9.3782C31.5138 9.3782 31.6586 9.39445 31.7707 9.4107C31.8501 9.42587 31.8828 9.45837 31.898 9.53745L32.1069 11.7572C32.1548 11.949 32.1233 11.9804 31.9306 11.9804L31.3854 12.0129C31.2733 12.028 31.2255 12.0443 31.2255 11.8688L31.0002 10.065L30.936 9.5537C30.9208 9.45837 30.9523 9.40962 31.0492 9.39445L31.3539 9.3782ZM13.1836 9.3782C13.312 9.3782 13.4404 9.39445 13.5525 9.4107C13.6167 9.42587 13.6483 9.45837 13.6646 9.53745L13.7299 10.0965L13.8888 11.8363C13.9051 11.9641 13.9051 11.9804 13.7767 11.9804L13.1521 12.0129C13.0236 12.028 13.0073 12.0129 12.991 11.885L12.8473 10.6067L12.7189 9.53745C12.7026 9.45837 12.7342 9.40962 12.8147 9.40962C12.9268 9.39445 13.0552 9.37712 13.1847 9.37712M19.5835 10.974V12.0746C19.5998 12.2501 19.5672 12.2501 19.4236 12.2501C19.2146 12.2501 19.022 12.235 18.8294 12.2187C18.701 12.2025 18.6857 12.2025 18.701 12.0746L18.6531 10.7183C18.6531 10.415 18.6531 10.1116 18.6378 9.80828C18.6215 9.6642 18.6378 9.64795 18.7815 9.64795C19.0064 9.64795 19.2313 9.6642 19.4562 9.6967C19.5835 9.6967 19.5835 9.7292 19.5835 9.85595V10.974ZM37.8006 10.9891V12.0909C37.8006 12.235 37.7854 12.2512 37.6406 12.2512L37.0312 12.2187C36.9354 12.2025 36.8876 12.1548 36.9028 12.0746L36.8549 9.79203C36.8549 9.6642 36.8712 9.64795 36.9996 9.64795C37.2075 9.64795 37.4001 9.6642 37.5927 9.68045C37.8332 9.6967 37.8017 9.74437 37.8017 9.91878L37.8006 10.9891ZM12.6874 11.8515C12.7037 12.0432 12.6874 12.0746 12.4948 12.0909L12.1106 12.1873C11.9822 12.235 11.9659 12.2025 11.9496 12.0909L11.5491 9.8397C11.5012 9.6967 11.5328 9.6642 11.6775 9.64795L12.239 9.55262C12.3674 9.53637 12.399 9.53637 12.399 9.6642C12.4469 9.93503 12.4948 10.207 12.5274 10.4789L12.6874 11.7561V11.8515ZM29.7509 9.6642C29.9903 9.61653 30.2482 9.58512 30.5051 9.55262C30.5845 9.53637 30.6161 9.58512 30.6324 9.6642L30.7608 10.5417C30.8261 10.974 30.8729 11.404 30.8892 11.8352V11.963C30.9055 12.028 30.8729 12.0746 30.8087 12.0909L30.2961 12.2025C30.2156 12.2187 30.184 12.1873 30.1677 12.1071L29.7509 9.72812V9.6642ZM18.3625 11.3889C18.3625 11.6445 18.3462 11.884 18.3299 12.1071C18.3299 12.1873 18.2983 12.2187 18.2178 12.235L17.7205 12.2826C17.641 12.2989 17.6084 12.2501 17.6084 12.171C17.5793 11.9374 17.5579 11.7029 17.5442 11.468C17.5115 11.0368 17.48 10.5905 17.4647 10.143L17.4321 9.82453C17.4168 9.75953 17.4484 9.72812 17.5126 9.72812L18.1699 9.68045C18.282 9.68045 18.3146 9.6967 18.3146 9.82453L18.3625 11.3889ZM36.548 11.1332C36.5643 11.4365 36.5643 11.7561 36.548 12.0595C36.5643 12.2025 36.5317 12.235 36.3881 12.235L35.9386 12.2826C35.8581 12.2989 35.8102 12.2501 35.8102 12.171C35.7916 11.7661 35.7651 11.3616 35.7308 10.9577L35.6655 9.8397C35.6502 9.76062 35.6818 9.72812 35.746 9.72812L36.3881 9.68045C36.5001 9.68045 36.5165 9.6967 36.5165 9.82453C36.5491 10.2546 36.5633 10.702 36.548 11.1332ZM12.0616 16.577C12.3174 16.8803 12.3663 17.2161 12.2532 17.5823C12.1609 17.9269 11.9784 18.2409 11.7243 18.4923C11.31 18.9191 10.828 19.2752 10.2976 19.5464C9.3835 20.0252 8.43673 20.361 7.42685 20.5365C6.70499 20.6795 5.98312 20.7752 5.26126 20.8236C5.03708 20.8399 4.81291 20.8399 4.58764 20.8399H4.10664C3.97823 20.8399 3.94667 20.8074 3.93035 20.6795L3.81826 19.1304L3.51355 16.0819L3.1762 13.1764L2.98467 11.6272L2.77573 10.143C2.66364 9.32945 2.51891 8.51478 2.37635 7.70228C2.26317 7.04578 2.15 6.39145 2.00526 5.73712C1.99003 5.65695 2.00526 5.59303 2.08579 5.57787L4.31558 4.65162C4.45923 4.5877 4.58764 4.54003 4.73238 4.50753C4.82814 4.49237 4.87711 4.52378 4.86079 4.6202C4.86079 4.87478 4.86079 5.13045 4.84447 5.40237L4.82814 5.60928C4.81227 6.54052 4.81227 7.47196 4.82814 8.4032C4.84447 9.21787 4.89344 10.0477 4.94132 10.8624C5.02921 12.1362 5.14168 13.4083 5.27867 14.6779C5.27867 14.8046 5.29391 14.8046 5.43755 14.7895C5.70961 14.7418 5.96752 14.7245 6.23958 14.7245C7.0895 14.7245 7.93941 14.822 8.75776 15.0278C9.47926 15.2044 10.1692 15.4438 10.8581 15.7471C11.1954 15.9064 11.5001 16.0981 11.7885 16.3213C11.9006 16.4015 11.9811 16.4816 12.0606 16.577M30.134 16.4329C30.4713 16.7037 30.5823 17.072 30.4866 17.5032C30.4087 17.8479 30.2431 18.1669 30.0056 18.4295C29.6256 18.8492 29.1753 19.2 28.6746 19.4662C27.7155 19.9953 26.6748 20.3621 25.5949 20.5517C25.0018 20.6644 24.4088 20.7597 23.8146 20.8074C23.4772 20.8399 23.1094 20.855 22.7405 20.8399H22.3074C22.2116 20.8561 22.1637 20.8074 22.1637 20.712C22.1311 20.2646 22.0984 19.8183 22.0506 19.3709L21.7937 16.6409L21.5217 14.2619L21.1843 11.5806C21.1364 11.117 21.0722 10.6381 20.9928 10.1755L20.7044 8.38803C20.5722 7.53756 20.4169 6.6908 20.2386 5.8487L20.2223 5.73712C20.1897 5.65695 20.2223 5.59303 20.3028 5.57787C21.0886 5.25828 21.859 4.9062 22.6447 4.60287C22.8526 4.52378 23.1094 4.42845 23.0931 4.6202C23.0289 5.21062 23.0452 5.80103 23.0289 6.3752C23.0126 6.85512 23.0126 7.33395 23.0452 7.79653V8.16378C23.0452 8.73795 23.0615 9.3132 23.1094 9.8722C23.1421 10.6219 23.1899 11.3889 23.2541 12.1385L23.3978 13.7516C23.4141 14.055 23.4457 14.342 23.4946 14.6454C23.4946 14.8209 23.5262 14.8046 23.6709 14.7895C23.9593 14.7418 24.2477 14.7245 24.5372 14.7245C25.5471 14.7407 26.5254 14.901 27.4863 15.1719C28.1429 15.3459 28.778 15.5922 29.3798 15.9064C29.6519 16.0505 29.8924 16.226 30.134 16.4329ZM6.94367 19.243C7.18526 19.099 7.60205 18.8119 8.17882 18.3655C8.75558 17.9019 9.10926 17.5985 9.254 17.4393C8.37386 17.0534 7.47454 16.7124 6.55953 16.4177L6.94367 19.243ZM27.4243 17.5195C27.4711 17.4707 27.4558 17.4393 27.4068 17.4068L27.0227 17.2475C26.3557 16.9616 25.6759 16.706 24.9855 16.4816L24.8898 16.4491C24.8571 16.4329 24.8245 16.4491 24.7777 16.4654L25.1618 19.2279C25.2097 19.2279 25.2423 19.2116 25.2587 19.1954C25.8833 18.748 26.5091 18.2854 27.1348 17.7903L27.4243 17.5195Z" fill="white"/>
</svg>
