<svg width="100%" height="100%" viewBox="0 0 18 32" fill="none" xmlns="http://www.w3.org/2000/svg">
<path d="M8.8782 3.52698C8.38634 3.52698 7.97846 3.1191 7.97846 2.62724V0.89974C7.97846 0.407882 8.38634 0 8.8782 0C9.37005 0 9.77794 0.407882 9.77794 0.89974V2.62724C9.77794 3.1191 9.37005 3.52698 8.8782 3.52698ZM14.4086 4.4903C14.1807 4.4903 13.9527 4.40632 13.7728 4.22638C13.6055 4.05706 13.5116 3.82861 13.5116 3.59056C13.5116 3.35251 13.6055 3.12406 13.7728 2.95474L14.5166 2.21096C14.8645 1.86306 15.4403 1.86306 15.7882 2.21096C16.1361 2.55886 16.1361 3.13469 15.7882 3.48259L15.0444 4.22638C14.8645 4.40632 14.6365 4.4903 14.4086 4.4903ZM3.3478 4.4987C3.11986 4.4987 2.89193 4.41472 2.71198 4.23477L1.9682 3.49099C1.80087 3.32167 1.70703 3.09322 1.70703 2.85517C1.70703 2.61713 1.80087 2.38867 1.9682 2.21936C2.3161 1.87146 2.89193 1.87146 3.23983 2.21936L3.98361 2.96314C4.33151 3.31104 4.33151 3.88687 3.98361 4.23477C3.80367 4.41472 3.57573 4.4987 3.3478 4.4987Z" fill="white"/>
<path d="M8.87847 31.2873C8.38662 31.2873 7.97873 30.8795 7.97873 30.3876V28.6601C7.97873 28.1682 8.38662 27.7604 8.87847 27.7604C9.37033 27.7604 9.77821 28.1682 9.77821 28.6601V30.3876C9.77821 30.8795 9.37033 31.2873 8.87847 31.2873ZM15.1527 29.3439C14.9247 29.3439 14.6968 29.2599 14.5168 29.08L13.7731 28.3362C13.6057 28.1669 13.5119 27.9384 13.5119 27.7004C13.5119 27.4623 13.6057 27.2339 13.7731 27.0646C14.121 26.7167 14.6968 26.7167 15.0447 27.0646L15.7885 27.8083C16.1364 28.1562 16.1364 28.7321 15.7885 29.08C15.6085 29.2599 15.3806 29.3439 15.1527 29.3439ZM2.59229 29.3259C2.36436 29.3259 2.13643 29.2419 1.95648 29.062C1.78915 28.8927 1.69531 28.6642 1.69531 28.4262C1.69531 28.1881 1.78915 27.9597 1.95648 27.7904L2.70026 27.0466C3.04816 26.6987 3.624 26.6987 3.9719 27.0466C4.31979 27.3945 4.31979 27.9703 3.9719 28.3182L3.22811 29.062C3.04816 29.2419 2.82023 29.3259 2.59229 29.3259Z" fill="white"/>
<path d="M15.2606 17H2.73944C2.33521 17 2 16.5467 2 16C2 15.4533 2.33521 15 2.73944 15H15.2606C15.6648 15 16 15.4533 16 16C16 16.5467 15.6648 17 15.2606 17Z" fill="white"/>
<path d="M3.02167 19C3.27027 19 3.51888 18.909 3.71515 18.7141C3.89765 18.5307 4 18.2833 4 18.0254C4 17.7676 3.89765 17.5202 3.71515 17.3368L2.36744 15.9984L3.71515 14.66C3.89765 14.4766 4 14.2291 4 13.9713C4 13.7135 3.89765 13.466 3.71515 13.2826C3.3357 12.9058 2.70764 12.9058 2.32819 13.2826L0.286998 15.3097C0.103224 15.4924 -2.16951e-07 15.7401 -2.16951e-07 15.9984C-2.16951e-07 16.2566 0.103224 16.5043 0.286998 16.6871L2.32819 18.7141C2.52445 18.909 2.77306 19 3.02167 19Z" fill="white"/>
<path d="M14.9783 19C14.7297 19 14.4811 18.909 14.2849 18.7141C14.1023 18.5307 14 18.2833 14 18.0254C14 17.7676 14.1023 17.5202 14.2849 17.3368L15.6326 15.9984L14.2849 14.66C14.1023 14.4766 14 14.2291 14 13.9713C14 13.7135 14.1023 13.466 14.2849 13.2826C14.6643 12.9058 15.2924 12.9058 15.6718 13.2826L17.713 15.3097C17.8968 15.4924 18 15.7401 18 15.9984C18 16.2566 17.8968 16.5043 17.713 16.6871L15.6718 18.7141C15.4755 18.909 15.2269 19 14.9783 19Z" fill="white"/>
<path d="M10 9.73944V22.2606C10 22.6648 9.54667 23 9 23C8.45333 23 8 22.6648 8 22.2606V9.73944C8 9.33521 8.45333 9 9 9C9.54667 9 10 9.33521 10 9.73944Z" fill="white"/>
<path d="M12 21.9783C12 21.7297 11.909 21.4811 11.7141 21.2849C11.5307 21.1023 11.2833 21 11.0254 21C10.7676 21 10.5202 21.1023 10.3368 21.2849L8.99838 22.6326L7.65999 21.2849C7.47659 21.1023 7.22915 21 6.9713 21C6.71346 21 6.46602 21.1023 6.28262 21.2849C5.90579 21.6643 5.90579 22.2924 6.28262 22.6718L8.30969 24.713C8.49242 24.8968 8.74012 25 8.99838 25C9.25663 25 9.50433 24.8968 9.68706 24.713L11.7141 22.6718C11.909 22.4755 12 22.2269 12 21.9783Z" fill="white"/>
<path d="M12 10.0217C12 10.2703 11.909 10.5189 11.7141 10.7151C11.5307 10.8977 11.2833 11 11.0254 11C10.7676 11 10.5202 10.8977 10.3368 10.7151L8.99838 9.36744L7.65999 10.7151C7.47659 10.8977 7.22915 11 6.9713 11C6.71346 11 6.46602 10.8977 6.28262 10.7151C5.90579 10.3357 5.90579 9.70764 6.28262 9.32819L8.30969 7.287C8.49242 7.10322 8.74012 7 8.99838 7C9.25663 7 9.50433 7.10322 9.68706 7.287L11.7141 9.32819C11.909 9.52445 12 9.77306 12 10.0217Z" fill="white"/>
</svg>
