<svg fill="none" width="100%" height="100%" viewBox="0 0 24 24" xmlns="http://www.w3.org/2000/svg"><path d="M12.5083 3.66406C12.8785 3.66406 13.1938 3.95312 13.2212 4.3233V5.81772C13.2218 5.91152 13.2038 6.0045 13.1682 6.09127C13.1326 6.17804 13.0801 6.25688 13.0138 6.3232C12.9475 6.38952 12.8686 6.44201 12.7818 6.47763C12.6951 6.51324 12.6021 6.53127 12.5083 6.53066C12.3273 6.5351 12.1516 6.46888 12.0185 6.34604C11.8854 6.22321 11.8054 6.05339 11.7954 5.87257V4.37814C11.7948 4.28435 11.8128 4.19137 11.8484 4.1046C11.884 4.01782 11.9365 3.93899 12.0028 3.87267C12.0691 3.80634 12.148 3.75385 12.2348 3.71824C12.3215 3.68262 12.4145 3.66346 12.5083 3.66406ZM7.44919 6.12049L7.49032 6.16162L8.50489 7.17619C8.77909 7.45039 8.77909 7.90283 8.50489 8.17704C8.37856 8.30179 8.21034 8.3751 8.03296 8.3827C7.85558 8.39031 7.68171 8.33166 7.54517 8.21817L7.50403 8.17704L6.48947 7.16248C6.35774 7.02923 6.28386 6.84942 6.28386 6.66205C6.28386 6.47468 6.35774 6.29487 6.48947 6.16162C6.74997 5.90113 7.17499 5.88742 7.4629 6.12049M18.5408 6.16162C18.8013 6.42212 18.815 6.84714 18.582 7.12135L18.5408 7.16248L17.5263 8.17704C17.393 8.30877 17.2132 8.38265 17.0259 8.38265C16.8385 8.38265 16.6587 8.30877 16.5254 8.17704C16.4001 8.04819 16.3267 7.87772 16.3191 7.69817C16.3115 7.51862 16.3703 7.34256 16.4843 7.20361L16.5254 7.16248L17.54 6.14791C17.8142 5.87371 18.2666 5.87371 18.5408 6.14791M6.133 11.4789C6.2268 11.4783 6.31978 11.4964 6.40655 11.532C6.49332 11.5676 6.57216 11.6201 6.63848 11.6864C6.7048 11.7527 6.75729 11.8316 6.79291 11.9183C6.82852 12.0051 6.84655 12.0981 6.84594 12.1919C6.85037 12.3729 6.78416 12.5486 6.66132 12.6817C6.53848 12.8147 6.36867 12.8948 6.18784 12.9048H4.69342C4.59963 12.9054 4.50665 12.8874 4.41987 12.8518C4.3331 12.8162 4.25427 12.7637 4.18794 12.6974C4.12162 12.631 4.06913 12.5522 4.03352 12.4654C3.9979 12.3787 3.97988 12.2857 3.98048 12.1919C3.98048 11.7943 4.2684 11.5064 4.63858 11.4789H6.133ZM20.3369 11.4789C20.4307 11.4783 20.5237 11.4964 20.6104 11.532C20.6972 11.5676 20.776 11.6201 20.8424 11.6864C20.9087 11.7527 20.9612 11.8316 20.9968 11.9183C21.0324 12.0051 21.0504 12.0981 21.0498 12.1919C21.0543 12.3729 20.9881 12.5486 20.8652 12.6817C20.7424 12.8147 20.5726 12.8948 20.3917 12.9048H18.8973C18.8035 12.9054 18.7105 12.8874 18.6238 12.8518C18.537 12.8162 18.4582 12.7637 18.3918 12.6974C18.3255 12.631 18.273 12.5522 18.2374 12.4654C18.2018 12.3787 18.1838 12.2857 18.1844 12.1919C18.1844 11.7943 18.4723 11.5064 18.8425 11.4789H20.3369ZM12.5083 9.51951C12.1581 9.52026 11.8114 9.59002 11.4882 9.72481C11.1649 9.8596 10.8714 10.0568 10.6244 10.3051C10.3773 10.5534 10.1817 10.8479 10.0486 11.1718C9.91543 11.4958 9.84745 11.8428 9.8485 12.193C9.84775 12.5425 9.91603 12.8887 10.0494 13.2118C10.1828 13.5348 10.3787 13.8283 10.6259 14.0755C10.873 14.3226 11.1665 14.5185 11.4895 14.6519C11.8126 14.7853 12.1588 14.8536 12.5083 14.8528C13.215 14.8528 13.8929 14.573 14.3939 14.0746C14.8949 13.5762 15.1782 12.8997 15.1818 12.193C15.1809 11.4842 14.8989 10.8047 14.3978 10.3036C13.8966 9.80238 13.2171 9.52042 12.5083 9.51951ZM12.5083 8.10735C13.5918 8.10765 14.6308 8.5382 15.397 9.30435C16.1631 10.0705 16.5937 11.1095 16.594 12.193C16.5913 13.2758 16.1599 14.3134 15.3943 15.079C14.6287 15.8447 13.5911 16.276 12.5083 16.2787C11.4255 16.276 10.3879 15.8447 9.62229 15.079C8.85667 14.3134 8.42534 13.2758 8.42263 12.193C8.42534 11.1103 8.85667 10.0726 9.62229 9.30701C10.3879 8.54139 11.4255 8.11006 12.5083 8.10735ZM8.50489 16.2101C8.76538 16.4706 8.77909 16.8957 8.54602 17.1699L8.50489 17.211L7.49032 18.2256C7.35708 18.3573 7.17727 18.4312 6.9899 18.4312C6.80253 18.4312 6.62272 18.3573 6.48947 18.2256C6.36472 18.0992 6.29141 17.931 6.28381 17.7536C6.27621 17.5762 6.33485 17.4024 6.44834 17.2658L6.48947 17.2247L7.50403 16.2101C7.77824 15.9359 8.23068 15.9359 8.50489 16.2101ZM17.4851 16.169L17.5263 16.2101L18.5408 17.2247C18.815 17.4989 18.815 17.9514 18.5408 18.2256C18.4133 18.3532 18.2424 18.4282 18.0621 18.4359C17.8819 18.4435 17.7053 18.3831 17.5674 18.2667L17.5263 18.2256L16.5117 17.211C16.38 17.0778 16.3061 16.8979 16.3061 16.7106C16.3061 16.5232 16.38 16.3434 16.5117 16.2101C16.7722 15.9496 17.1972 15.9359 17.4714 16.169M12.5083 17.8691C12.8785 17.8691 13.1938 18.157 13.2212 18.5272V20.0216C13.2218 20.1154 13.2038 20.2084 13.1682 20.2952C13.1326 20.3819 13.0801 20.4608 13.0138 20.5271C12.9475 20.5934 12.8686 20.6459 12.7818 20.6815C12.6951 20.7171 12.6021 20.7352 12.5083 20.7345C12.3273 20.739 12.1516 20.6728 12.0185 20.5499C11.8854 20.4271 11.8054 20.2573 11.7954 20.0765V18.582C11.7948 18.4882 11.8128 18.3953 11.8484 18.3085C11.884 18.2217 11.9365 18.1429 12.0028 18.0766C12.0691 18.0102 12.148 17.9577 12.2348 17.9221C12.3215 17.8865 12.4145 17.8685 12.5083 17.8691Z" fill="white"/></svg>