<svg width="100%" height="100%" viewBox="0 0 25 25" fill="none" xmlns="http://www.w3.org/2000/svg">
  <path d="M13.5128 4.85205C13.7564 4.85205 13.9901 4.94883 14.1623 5.1211C14.3346 5.29337 14.4314 5.52702 14.4314 5.77064C14.4314 6.01427 14.3346 6.24791 14.1623 6.42018C13.9901 6.59245 13.7564 6.68923 13.5128 6.68923C13.2692 6.68923 13.0355 6.59245 12.8632 6.42018C12.691 6.24791 12.5942 6.01427 12.5942 5.77064C12.5942 5.52702 12.691 5.29337 12.8632 5.1211C13.0355 4.94883 13.2692 4.85205 13.5128 4.85205Z" fill="white"/>
  <path d="M8.31658 7.00457C8.48987 6.83293 8.72392 6.73665 8.96782 6.73665C9.21173 6.73665 9.44577 6.83293 9.61906 7.00457C9.7907 7.17786 9.88698 7.41191 9.88698 7.65581C9.88698 7.89971 9.7907 8.13376 9.61906 8.30705C9.44577 8.47869 9.21173 8.57497 8.96782 8.57497C8.72392 8.57497 8.48987 8.47869 8.31658 8.30705C8.14495 8.13376 8.04866 7.89971 8.04866 7.65581C8.04866 7.41191 8.14495 7.17786 8.31658 7.00457Z" fill="white"/>
  <path d="M17.3928 7.00457C17.5661 6.83293 17.8001 6.73665 18.0441 6.73665C18.288 6.73665 18.522 6.83293 18.6953 7.00457C18.8669 7.17786 18.9632 7.41191 18.9632 7.65581C18.9632 7.89971 18.8669 8.13376 18.6953 8.30705C18.522 8.47869 18.288 8.57497 18.0441 8.57497C17.8001 8.57497 17.5661 8.47869 17.3928 8.30705C17.2212 8.13376 17.1249 7.89971 17.1249 7.65581C17.1249 7.41191 17.2212 7.17786 17.3928 7.00457Z" fill="white"/>
  <path d="M7.08265 11.2822C7.32628 11.2822 7.55993 11.379 7.7322 11.5512C7.90446 11.7235 8.00124 11.9572 8.00124 12.2008C8.00124 12.4444 7.90446 12.6781 7.7322 12.8503C7.55993 13.0226 7.32628 13.1194 7.08265 13.1194C6.83903 13.1194 6.60538 13.0226 6.43311 12.8503C6.26084 12.6781 6.16406 12.4444 6.16406 12.2008C6.16406 11.9572 6.26084 11.7235 6.43311 11.5512C6.60538 11.379 6.83903 11.2822 7.08265 11.2822Z" fill="white"/>
  <path d="M19.9292 11.2822C20.1728 11.2822 20.4065 11.379 20.5788 11.5512C20.751 11.7235 20.8478 11.9572 20.8478 12.2008C20.8478 12.4444 20.751 12.6781 20.5788 12.8503C20.4065 13.0226 20.1728 13.1194 19.9292 13.1194C19.6856 13.1194 19.4519 13.0226 19.2797 12.8503C19.1074 12.6781 19.0106 12.4444 19.0106 12.2008C19.0106 11.9572 19.1074 11.7235 19.2797 11.5512C19.4519 11.379 19.6856 11.2822 19.9292 11.2822Z" fill="white"/>
  <path d="M13.5128 9.54098C13.1626 9.54173 12.8159 9.61149 12.4926 9.74628C12.1694 9.88107 11.8759 10.0782 11.6288 10.3265C11.3818 10.5748 11.1862 10.8694 11.053 11.1933C10.9199 11.5173 10.8519 11.8643 10.853 12.2145C10.8522 12.564 10.9205 12.9102 11.0539 13.2332C11.1873 13.5563 11.3832 13.8498 11.6303 14.0969C11.8775 14.3441 12.171 14.54 12.494 14.6734C12.8171 14.8068 13.1633 14.875 13.5128 14.8743C14.218 14.8737 14.8942 14.5933 15.3929 14.0946C15.8916 13.5959 16.172 12.9197 16.1726 12.2145C16.1726 11.5078 15.8928 10.8299 15.3944 10.3289C14.896 9.82787 14.2195 9.5446 13.5128 9.54098ZM13.5128 8.11511C14.5963 8.11541 15.6353 8.54596 16.4015 9.31211C17.1676 10.0783 17.5982 11.1173 17.5985 12.2008C17.5957 13.2835 17.1644 14.3212 16.3988 15.0868C15.6332 15.8524 14.5955 16.2837 13.5128 16.2865C12.43 16.2837 11.3924 15.8524 10.6268 15.0868C9.86116 14.3212 9.42983 13.2835 9.42712 12.2008C9.42983 11.118 9.86116 10.0804 10.6268 9.31477C11.3924 8.54915 12.43 8.11782 13.5128 8.11511Z" fill="white"/>
  <path d="M8.31658 16.0945C8.48987 15.9229 8.72392 15.8266 8.96782 15.8266C9.21173 15.8266 9.44577 15.9229 9.61906 16.0945C9.7907 16.2678 9.88698 16.5018 9.88698 16.7457C9.88698 16.9897 9.7907 17.2237 9.61906 17.397C9.44577 17.5686 9.21173 17.6649 8.96782 17.6649C8.72392 17.6649 8.48987 17.5686 8.31658 17.397C8.14495 17.2237 8.04866 16.9897 8.04866 16.7457C8.04866 16.5018 8.14495 16.2678 8.31658 16.0945Z" fill="white"/>
  <path d="M17.3928 16.0945C17.5661 15.9229 17.8001 15.8266 18.0441 15.8266C18.288 15.8266 18.522 15.9229 18.6953 16.0945C18.8669 16.2678 18.9632 16.5018 18.9632 16.7457C18.9632 16.9897 18.8669 17.2237 18.6953 17.397C18.522 17.5686 18.288 17.6649 18.0441 17.6649C17.8001 17.6649 17.5661 17.5686 17.3928 17.397C17.2212 17.2237 17.1249 16.9897 17.1249 16.7457C17.1249 16.5018 17.2212 16.2678 17.3928 16.0945Z" fill="white"/>
  <path d="M13.5128 17.6986C13.7564 17.6986 13.9901 17.7954 14.1623 17.9677C14.3346 18.1399 14.4314 18.3736 14.4314 18.6172C14.4314 18.8608 14.3346 19.0945 14.1623 19.2667C13.9901 19.439 13.7564 19.5358 13.5128 19.5358C13.2692 19.5358 13.0355 19.439 12.8632 19.2667C12.691 19.0945 12.5942 18.8608 12.5942 18.6172C12.5942 18.3736 12.691 18.1399 12.8632 17.9677C13.0355 17.7954 13.2692 17.6986 13.5128 17.6986Z" fill="white"/>
</svg>
