<svg width="100%" height="100%" viewBox="0 0 32 40" fill="none" xmlns="http://www.w3.org/2000/svg">
<path d="M15.9897 29.8351C14.0057 29.8351 12.0217 29.7871 10.5817 29.6751C9.1897 29.5631 7.8777 28.9711 6.9017 27.9791C5.9097 27.0031 5.3177 25.6911 5.2217 24.2991L5.1257 22.8111L3.6537 24.2831C3.1897 24.7471 2.4217 24.7471 1.9577 24.2831C1.73453 24.0573 1.60938 23.7526 1.60938 23.4351C1.60938 23.1176 1.73453 22.8129 1.9577 22.5871L5.4137 19.1311C5.58181 18.9643 5.79548 18.8508 6.02786 18.805C6.26024 18.7593 6.50097 18.7832 6.7198 18.8738C6.93863 18.9644 7.1258 19.1177 7.2578 19.3143C7.38979 19.511 7.46073 19.7422 7.4617 19.9791C7.4617 21.3551 7.5097 22.7471 7.6217 24.1071C7.6857 24.9231 8.0377 25.6911 8.6137 26.2671C9.1897 26.8431 9.9577 27.1951 10.7737 27.2591C13.5097 27.4671 18.5017 27.4671 21.2377 27.2591C22.0537 27.1951 22.8217 26.8431 23.3977 26.2671C23.9737 25.6911 24.3257 24.9231 24.3897 24.1071L24.4377 23.3551C24.4857 22.6831 25.0617 22.1711 25.7177 22.2351C26.3737 22.2831 26.8857 22.8431 26.8377 23.5151L26.7897 24.2991C26.6867 25.688 26.0893 26.9941 25.106 27.9804C24.1226 28.9667 22.8183 29.5679 21.4297 29.6751C19.9897 29.7871 18.0057 29.8351 16.0217 29.8351H15.9897ZM25.7337 21.1951C25.4158 21.1938 25.1113 21.067 24.8866 20.8422C24.6618 20.6174 24.535 20.313 24.5337 19.9951C24.5337 18.6191 24.4857 17.2271 24.3737 15.8671C24.3097 15.0511 23.9577 14.2831 23.3817 13.7071C22.8057 13.1311 22.0377 12.7791 21.2217 12.7151C18.4857 12.5071 13.4937 12.5071 10.7577 12.7151C9.9417 12.7791 9.1737 13.1311 8.5977 13.7071C8.0217 14.2831 7.6697 15.0511 7.6057 15.8671L7.5577 16.6191C7.55175 16.7768 7.5139 16.9317 7.44643 17.0744C7.37896 17.2171 7.28326 17.3446 7.16513 17.4493C7.04699 17.554 6.90886 17.6336 6.75909 17.6834C6.60931 17.7332 6.45099 17.7522 6.2937 17.7391C5.97812 17.7185 5.68344 17.5742 5.47371 17.3375C5.26398 17.1008 5.15616 16.7908 5.1737 16.4751L5.2217 15.6911C5.3177 14.2991 5.9257 13.0031 6.9017 12.0111C7.8849 11.0246 9.19226 10.4277 10.5817 10.3311C13.4617 10.1071 18.5177 10.1071 21.4137 10.3311C22.8021 10.4313 24.108 11.0282 25.0923 12.0125C26.0766 12.9968 26.6735 14.3027 26.7737 15.6911L26.8697 17.1631L28.3417 15.6911C28.8057 15.2271 29.5737 15.2271 30.0377 15.6911C30.5017 16.1551 30.5017 16.9231 30.0377 17.3871L26.5817 20.8431C26.3577 21.0671 26.0377 21.1951 25.7337 21.1951Z" fill="white"/>
<path d="M19.626 19.4321C19.8174 19.4321 19.9727 19.5874 19.9727 19.779V20.2208C19.9727 20.4121 19.8175 20.5677 19.626 20.5677H12.3706C12.1792 20.5677 12.024 20.4123 12.024 20.2208V19.779C12.024 19.5876 12.1792 19.4321 12.3706 19.4321H19.626Z" fill="white"/>
<path d="M16.1829 6.52698C15.691 6.52698 15.2831 6.1191 15.2831 5.62724V3.89974C15.2831 3.40788 15.691 3 16.1829 3C16.6747 3 17.0826 3.40788 17.0826 3.89974V5.62724C17.0826 6.1191 16.6747 6.52698 16.1829 6.52698ZM21.7133 7.4903C21.4853 7.4903 21.2574 7.40632 21.0775 7.22638C20.9101 7.05706 20.8163 6.82861 20.8163 6.59056C20.8163 6.35251 20.9101 6.12406 21.0775 5.95474L21.8213 5.21096C22.1692 4.86306 22.745 4.86306 23.0929 5.21096C23.4408 5.55886 23.4408 6.13469 23.0929 6.48259L22.3491 7.22638C22.1692 7.40632 21.9412 7.4903 21.7133 7.4903ZM10.6525 7.4987C10.4246 7.4987 10.1966 7.41472 10.0167 7.23477L9.27289 6.49099C9.10556 6.32167 9.01172 6.09322 9.01172 5.85517C9.01172 5.61713 9.10556 5.38867 9.27289 5.21936C9.62078 4.87146 10.1966 4.87146 10.5445 5.21936L11.2883 5.96314C11.6362 6.31104 11.6362 6.88687 11.2883 7.23477C11.1084 7.41472 10.8804 7.4987 10.6525 7.4987Z" fill="white"/>
<path d="M16.1832 37.2873C15.6913 37.2873 15.2834 36.8795 15.2834 36.3876V34.6601C15.2834 34.1682 15.6913 33.7604 16.1832 33.7604C16.675 33.7604 17.0829 34.1682 17.0829 34.6601V36.3876C17.0829 36.8795 16.675 37.2873 16.1832 37.2873ZM22.4573 35.3439C22.2294 35.3439 22.0015 35.2599 21.8215 35.08L21.0777 34.3362C20.9104 34.1669 20.8166 33.9384 20.8166 33.7004C20.8166 33.4623 20.9104 33.2339 21.0777 33.0646C21.4256 32.7167 22.0015 32.7167 22.3494 33.0646L23.0932 33.8083C23.4411 34.1562 23.4411 34.7321 23.0932 35.08C22.9132 35.2599 22.6853 35.3439 22.4573 35.3439ZM9.89698 35.3259C9.66905 35.3259 9.44111 35.2419 9.26117 35.062C9.09384 34.8927 9 34.6642 9 34.4262C9 34.1881 9.09384 33.9597 9.26117 33.7904L10.005 33.0466C10.3529 32.6987 10.9287 32.6987 11.2766 33.0466C11.6245 33.3945 11.6245 33.9703 11.2766 34.3182L10.5328 35.062C10.3529 35.2419 10.1249 35.3259 9.89698 35.3259Z" fill="white"/>
</svg>
