<svg width="100%" height="100%" viewBox="0 0 21 26" fill="none" xmlns="http://www.w3.org/2000/svg">
<path d="M14.798 6L14.798 6.00091L14.967 6.00094C20.8485 6.00094 21.029 8.20747 20.9975 11.1154L20.9952 11.3125L20.9912 11.6118C20.9886 11.8129 20.9865 12.0167 20.9865 12.2229V19.7781C20.9865 23.2144 18.2915 26 14.967 26H13.0321C9.70757 26 7.01252 23.2144 7.01252 19.7781V12.2229C7.01252 12.0511 7.01109 11.8809 7.00918 11.7126L7.00675 11.5116L7.00423 11.3124L7.00204 11.1154C6.97334 8.20747 7.16562 6.00094 13.0321 6.00094H14.1363L14.798 6ZM19.6425 17.1004H8.35649V19.7781C8.35649 22.4341 10.412 24.5853 12.9549 24.628L13.0321 24.6287H14.967C17.5195 24.6287 19.6005 22.5041 19.6419 19.8584L19.6425 19.7781V17.1004ZM13.4558 7.37234H12.9913L12.9104 7.37262L12.8303 7.37325L12.751 7.37413L12.6725 7.37533L12.5948 7.37685L12.5562 7.37771L12.4797 7.37965L12.4417 7.38074L12.3664 7.38311L12.329 7.38442L12.2548 7.38725L12.1815 7.39039C12.1571 7.39145 12.1329 7.39259 12.1089 7.39379L12.0014 7.39945L11.9307 7.40359L11.8957 7.40576L11.8262 7.41033L11.7918 7.41273L11.7234 7.41773L11.6391 7.42439L11.5559 7.4315L11.4903 7.4375L11.4254 7.44379L11.3613 7.45036L11.2979 7.45722L11.2353 7.46436L11.2043 7.46802L11.1428 7.47556L11.1123 7.47944L11.052 7.48742L11.0221 7.4915L10.9629 7.49987C10.7274 7.53398 10.5099 7.57473 10.3098 7.62181L10.2601 7.63372C10.1425 7.66226 10.0259 7.69485 9.91043 7.73143C9.84603 7.75195 9.78443 7.77306 9.72558 7.79477L9.68671 7.80934L9.64866 7.82408C9.2281 7.98973 8.95448 8.18873 8.77663 8.42223C8.59225 8.6643 8.47355 8.99434 8.40815 9.47541L8.40322 9.51255L8.39972 9.53998C8.39689 9.56283 8.39415 9.58569 8.39154 9.60854L8.38849 9.63603L8.38454 9.67326L8.37962 9.72325L8.37614 9.76117L8.37287 9.79945L8.36979 9.8383L8.36604 9.89096L8.36259 9.94484L8.36021 9.98618L8.35803 10.0284L8.3554 10.0862L8.35304 10.1458L8.3515 10.1919L8.34926 10.2716L8.34784 10.3381L8.34663 10.4072L8.34616 10.4428L8.34537 10.5163L8.34481 10.5929L8.3445 10.7141L8.3447 10.8433L8.34523 10.9577L8.34677 11.1543L8.34943 11.3971L8.35349 11.7332L8.35576 11.9866L8.35646 12.1626V15.729H13.467L13.4656 14.6638L13.4669 14.664C12.501 14.5177 11.76 13.6681 11.76 12.6419V10.5595C11.76 9.54478 12.4845 8.70273 13.4345 8.54257L13.4574 8.53885L13.4558 7.37234ZM16.268 10.5595V12.6419C16.268 13.5887 15.6372 14.3852 14.781 14.6177C14.7906 14.6151 14.8001 14.6124 14.8095 14.6097L14.811 15.7291H19.6425L19.6426 12.1502L19.6437 11.9351L19.6458 11.7164L19.6522 11.2086L19.654 11.0254L19.655 10.8796L19.6555 10.7433V10.651L19.6552 10.5566L19.6545 10.4669L19.6537 10.4024L19.6531 10.3608L19.652 10.3001L19.6501 10.2224L19.6485 10.1663L19.6466 10.112L19.6445 10.0593L19.6421 10.008L19.6395 9.95813L19.6366 9.90944L19.6334 9.86182L19.63 9.81511L19.6263 9.76922L19.6237 9.739L19.6195 9.69411L19.6152 9.65169C19.6109 9.61063 19.6062 9.56962 19.6011 9.52866L19.5959 9.48766C19.5316 8.99677 19.4128 8.6625 19.2263 8.4184C19.1098 8.26584 18.9518 8.12799 18.7378 8.00456L18.7083 7.98782C18.5838 7.91842 18.4411 7.85368 18.2774 7.79354L18.2377 7.7792L18.1972 7.76503C18.1631 7.75332 18.1281 7.74175 18.0923 7.73038C17.9928 7.69893 17.8924 7.67049 17.7912 7.64509L17.7422 7.63295C17.7258 7.62895 17.7092 7.62498 17.6925 7.62107L17.642 7.60947L17.5908 7.59812L17.565 7.59255L17.5127 7.58161L17.4863 7.57624L17.4329 7.5657L17.3788 7.55541C17.3421 7.54858 17.3052 7.54201 17.2684 7.5357L17.212 7.52624C17.1641 7.51836 17.1161 7.51087 17.068 7.50379L17.0091 7.4953L16.9494 7.48707C16.9194 7.48302 16.8891 7.47907 16.8585 7.47524L16.7969 7.46773L16.7346 7.46047L16.6716 7.4535L16.6077 7.44682L16.5432 7.44039C16.5215 7.4383 16.4997 7.43628 16.4778 7.43428L16.4117 7.42842C16.3895 7.42653 16.3672 7.42468 16.3448 7.42288L16.2772 7.41759C16.2545 7.41588 16.2317 7.41422 16.2088 7.41262L16.1396 7.4079L16.0343 7.40139L15.9632 7.39739L15.9274 7.39553L15.855 7.39199L15.7819 7.38873L15.7081 7.38576L15.6708 7.38439L15.5958 7.38185L15.558 7.38071L15.4626 7.37814L15.366 7.37605L15.2877 7.37471L15.2088 7.37365L15.1689 7.37325L15.0888 7.37265L15.0077 7.37236H14.7998L14.8014 8.58936L14.8072 8.59102C15.65 8.8325 16.268 9.62234 16.268 10.5595ZM14.2644 9.88647H13.7636C13.4029 9.88647 13.1099 10.1818 13.1041 10.5483L13.104 10.5595V12.6419C13.104 13.0099 13.3934 13.3089 13.7526 13.3148L13.7636 13.3149H14.2644C14.6251 13.3149 14.9181 13.0196 14.9239 12.653L14.924 12.6419V10.5595C14.924 10.1915 14.6346 9.8925 14.2754 9.88656L14.2644 9.88647Z" fill="white"/>
<path d="M7.46924 1.03401L7.93924 0.903041C8.19882 0.830706 8.44735 0.980726 8.49439 1.23807L8.96256 3.80111C9.0096 4.0585 8.83726 4.32576 8.5777 4.39807L8.10768 4.52907C7.84809 4.6014 7.59956 4.45138 7.5525 4.19402L7.08433 1.63098C7.03732 1.37361 7.20968 1.10637 7.46924 1.03401ZM1.59675 7.94376L4.19999 8.05069C4.4614 8.06143 4.64454 8.28667 4.60902 8.55382L4.54475 9.03744C4.50923 9.30459 4.26857 9.51243 4.00712 9.50169L1.40391 9.39473C1.1425 9.38399 0.959354 9.15876 0.994878 8.89161L1.05917 8.40796C1.09465 8.14086 1.33532 7.933 1.59675 7.94376ZM4.46563 3.8617L6.36389 5.51183C6.55452 5.67753 6.5612 5.98191 6.37882 6.19172L6.0486 6.57159C5.86622 6.78139 5.56387 6.81714 5.37325 6.65143L3.47499 5.0013C3.28437 4.83559 3.27768 4.53121 3.46007 4.32141L3.79028 3.94154C3.97266 3.73173 4.27501 3.69599 4.46563 3.8617Z" fill="white"/>
</svg>
