<svg width="100%" height="100%" viewBox="0 0 14 35" fill="none" xmlns="http://www.w3.org/2000/svg">
<path d="M7.798 0L7.79797 0.00091374L7.96695 0.000942513C13.8485 0.000942513 14.029 2.20747 13.9975 5.11536L13.9952 5.31246L13.9912 5.61185C13.9886 5.81287 13.9865 6.01669 13.9865 6.22288V13.7781C13.9865 17.2144 11.2915 20 7.96695 20H6.0321C2.70757 20 0.012515 17.2144 0.012515 13.7781V6.22288C0.012515 6.05106 0.0110874 5.88089 0.00918336 5.71259L0.0067472 5.51157L0.0042273 5.31244L0.00204322 5.11536C-0.0266568 2.20747 0.165619 0.000942513 6.0321 0.000942513H7.13633L7.798 0ZM12.6425 11.1004H1.35649V13.7781C1.35649 16.4341 3.412 18.5853 5.95487 18.628L6.0321 18.6287H7.96695C10.5195 18.6287 12.6005 16.5041 12.6419 13.8584L12.6425 13.7781V11.1004ZM6.45585 1.37234H5.99133L5.91041 1.37262L5.83033 1.37325L5.751 1.37413L5.67249 1.37533L5.59479 1.37685L5.55624 1.37771L5.47968 1.37965L5.44172 1.38074L5.3664 1.38311L5.32902 1.38442L5.25482 1.38725L5.18146 1.39039C5.1571 1.39145 5.13293 1.39259 5.10885 1.39379L5.00142 1.39945L4.93074 1.40359L4.89574 1.40576L4.82622 1.41033L4.79178 1.41273L4.72343 1.41773L4.6391 1.42439L4.55594 1.4315L4.4903 1.4375L4.42543 1.44379L4.36131 1.45036L4.29792 1.45722L4.23531 1.46436L4.20428 1.46802L4.1428 1.47556L4.11233 1.47944L4.05199 1.48742L4.02209 1.4915L3.96287 1.49987C3.72744 1.53398 3.50994 1.57473 3.3098 1.62181L3.26012 1.63372C3.14251 1.66226 3.02588 1.69485 2.91043 1.73143C2.84603 1.75195 2.78443 1.77306 2.72558 1.79477L2.68671 1.80934L2.64866 1.82408C2.2281 1.98973 1.95448 2.18873 1.77663 2.42223C1.59225 2.6643 1.47355 2.99434 1.40815 3.47541L1.40322 3.51255L1.39972 3.53998C1.39689 3.56283 1.39415 3.58569 1.39154 3.60854L1.38849 3.63603L1.38454 3.67326L1.37962 3.72325L1.37614 3.76117L1.37287 3.79945L1.36979 3.8383L1.36604 3.89096L1.36259 3.94484L1.36021 3.98618L1.35803 4.02838L1.3554 4.08618L1.35304 4.14583L1.3515 4.19194L1.34926 4.2716L1.34784 4.33808L1.34663 4.40722L1.34616 4.44285L1.34537 4.5163L1.34481 4.59287L1.3445 4.71406L1.3447 4.84334L1.34523 4.95774L1.34677 5.15433L1.34943 5.39715L1.35349 5.73319L1.35576 5.9866L1.35646 6.16257V9.72903H6.46705L6.46559 8.66379L6.46691 8.66399C5.50105 8.51771 4.76 7.66812 4.76 6.64189V4.55947C4.76 3.54478 5.4845 2.70273 6.43446 2.54257L6.45739 2.53885L6.45585 1.37234ZM9.268 4.55947V6.64189C9.268 7.5887 8.63719 8.38518 7.78103 8.61765C7.79055 8.61508 7.80007 8.61242 7.80951 8.60968L7.81102 9.72906H12.6425L12.6426 6.15022L12.6437 5.93515L12.6458 5.71639L12.6522 5.20858L12.654 5.02542L12.655 4.8796L12.6555 4.74332V4.65095L12.6552 4.55658L12.6545 4.46688L12.6537 4.40245L12.6531 4.36077L12.652 4.30008L12.6501 4.22237L12.6485 4.16629L12.6466 4.11198L12.6445 4.05927L12.6421 4.00801L12.6395 3.95813L12.6366 3.90944L12.6334 3.86182L12.63 3.81511L12.6263 3.76922L12.6237 3.739L12.6195 3.69411L12.6152 3.65169C12.6109 3.61063 12.6062 3.56962 12.6011 3.52866L12.5959 3.48766C12.5316 2.99677 12.4128 2.6625 12.2263 2.4184C12.1098 2.26584 11.9518 2.12799 11.7378 2.00456L11.7083 1.98782C11.5838 1.91842 11.4411 1.85368 11.2774 1.79354L11.2377 1.7792L11.1972 1.76503C11.1631 1.75332 11.1281 1.74175 11.0923 1.73038C10.9928 1.69893 10.8924 1.67049 10.7912 1.64509L10.7422 1.63295C10.7258 1.62895 10.7092 1.62498 10.6925 1.62107L10.642 1.60947L10.5908 1.59812L10.565 1.59255L10.5127 1.58161L10.4863 1.57624L10.4329 1.5657L10.3788 1.55541C10.3421 1.54858 10.3052 1.54201 10.2684 1.5357L10.212 1.52624C10.1641 1.51836 10.1161 1.51087 10.068 1.50379L10.0091 1.4953L9.94941 1.48707C9.91939 1.48302 9.88907 1.47907 9.85849 1.47524L9.79692 1.46773L9.73462 1.46047L9.67156 1.4535L9.60772 1.44682L9.54316 1.44039C9.52148 1.4383 9.4997 1.43628 9.4778 1.43428L9.4117 1.42842C9.38952 1.42653 9.36723 1.42468 9.3448 1.42288L9.27716 1.41759C9.25448 1.41588 9.23168 1.41422 9.20875 1.41262L9.13956 1.4079L9.03431 1.40139L8.96319 1.39739L8.92735 1.39553L8.85503 1.39199L8.78195 1.38873L8.70808 1.38576L8.67084 1.38439L8.5958 1.38185L8.558 1.38071L8.46261 1.37814L8.36595 1.37605L8.28775 1.37471L8.20876 1.37365L8.16894 1.37325L8.08875 1.37265L8.00775 1.37236H7.79982L7.80144 2.58936L7.80724 2.59102C8.65004 2.8325 9.268 3.62234 9.268 4.55947ZM7.26443 3.88647H6.76357C6.40293 3.88647 6.10991 4.18177 6.10408 4.54833L6.104 4.55947V6.64189C6.104 7.00987 6.39341 7.30886 6.75265 7.3148L6.76357 7.31488H7.26443C7.62507 7.31488 7.91809 7.01958 7.92392 6.65303L7.924 6.64189V4.55947C7.924 4.19149 7.63459 3.8925 7.27535 3.88656L7.26443 3.88647Z" fill="white"/>
<path d="M7.58464 30.7418V22.4585H6.41797V30.6835L4.60964 28.8752L3.79297 29.7502L7.0013 32.9585L10.2096 29.7502L9.39297 28.9335L7.58464 30.7418Z" fill="white"/>
</svg>
