<svg width="100%" height="100%" viewBox="0 0 26 37" fill="none" xmlns="http://www.w3.org/2000/svg">
<path d="M6.49449 16.3644L6.49511 16.3651L6.61462 16.2456C10.7735 12.0867 12.4614 13.5193 14.4953 15.5978L14.633 15.7388L14.8419 15.9533C14.9822 16.0973 15.1249 16.2429 15.2707 16.3887L20.613 21.731C23.0428 24.1608 23.1069 28.0363 20.7561 30.3871L19.3879 31.7552C17.0371 34.106 13.1617 34.042 10.7319 31.6122L5.38956 26.2698C5.26806 26.1483 5.14673 26.029 5.02637 25.9113L4.88251 25.7709L4.73992 25.6319L4.59902 25.4941C2.52253 23.4582 1.09825 21.762 5.24647 17.6137L6.02728 16.8329L6.49449 16.3644ZM17.7693 20.788L9.78883 28.7684L11.6823 30.6618C13.5603 32.5399 16.5349 32.6075 18.3632 30.8397L18.4183 30.7855L19.7864 29.4174C21.5913 27.6125 21.5605 24.6386 19.719 22.7386L19.6627 22.6814L17.7693 20.788ZM6.51583 18.2838L6.18737 18.6123L6.13035 18.6697L6.07417 18.7268L6.0187 18.7835L5.96403 18.8399L5.91016 18.8959L5.88351 18.9238L5.83075 18.9793L5.80467 19.0069L5.75309 19.0618L5.72759 19.0892L5.67712 19.1436L5.62747 19.1977C5.61099 19.2157 5.59471 19.2336 5.57853 19.2515L5.50656 19.3314L5.45952 19.3843L5.43631 19.4106L5.39038 19.463L5.36772 19.4891L5.32293 19.5409L5.268 19.6053L5.21423 19.6691L5.17206 19.7198L5.13063 19.7701L5.08994 19.8201L5.04996 19.8697L5.01074 19.9191L4.99139 19.9436L4.95325 19.9924L4.93445 20.0167L4.89742 20.065L4.87916 20.089L4.84321 20.1368C4.70086 20.3274 4.57587 20.51 4.46764 20.6848L4.44094 20.7284C4.37795 20.8317 4.31853 20.9372 4.26276 21.0447C4.23173 21.1048 4.2031 21.1633 4.17684 21.2202L4.15966 21.258L4.14318 21.2954C3.96293 21.7099 3.91016 22.0441 3.94951 22.3349C3.9903 22.6365 4.13975 22.9538 4.43366 23.3402L4.45644 23.3699L4.47336 23.3918C4.48752 23.41 4.50174 23.4281 4.51606 23.4461L4.53334 23.4677L4.55687 23.4968L4.58874 23.5356L4.6131 23.5649L4.63785 23.5943L4.66315 23.6239L4.69773 23.6638L4.73339 23.7043L4.76094 23.7353L4.78924 23.7666L4.82824 23.8094L4.86876 23.8532L4.90028 23.8869L4.95502 23.9448L5.00102 23.9928L5.04906 24.0426L5.07391 24.0681L5.1253 24.1206L5.17904 24.1751L5.26452 24.2611L5.35608 24.3523L5.43734 24.4328L5.57744 24.5708L5.75102 24.7406L5.99151 24.9753L6.1723 25.1529L6.29722 25.2768L8.81909 27.7987L12.4328 24.185L11.6786 23.4328L11.6796 23.432C10.8932 24.0115 9.76848 23.9348 9.04282 23.2091L7.57033 21.7366C6.85283 21.0191 6.76971 19.9114 7.32818 19.1264L7.34177 19.1076L6.51583 18.2838ZM10.758 18.549L12.2305 20.0215C12.9 20.691 13.0171 21.7002 12.5761 22.47C12.581 22.4614 12.5859 22.4528 12.5906 22.4442L13.3832 23.2347L16.7996 19.8183L14.269 17.2876L14.1177 17.1348L13.9645 16.9786L13.6099 16.615L13.4817 16.4842L13.3793 16.3804L13.2833 16.2837L13.218 16.2184L13.151 16.1519L13.0871 16.0889L13.041 16.0439L13.0111 16.0149L12.9674 15.9727L12.9111 15.9191L12.8703 15.8806L12.8306 15.8435L12.7918 15.8077L12.7539 15.7732L12.7168 15.7398L12.6803 15.7074L12.6444 15.6759L12.6089 15.6453L12.5738 15.6155L12.5506 15.596L12.5159 15.5672L12.4829 15.5403C12.4508 15.5142 12.4185 15.4886 12.3859 15.4632L12.3533 15.4379C11.9607 15.1363 11.6403 14.9839 11.3358 14.9432C11.1456 14.9177 10.9364 14.932 10.6978 14.996L10.6651 15.005C10.528 15.044 10.3813 15.0991 10.223 15.1723L10.1848 15.1903L10.1461 15.2089C10.1137 15.2247 10.0808 15.2412 10.0475 15.2585C9.95487 15.3067 9.86377 15.3575 9.77428 15.4111L9.73104 15.4372C9.71657 15.446 9.70204 15.4549 9.68746 15.464L9.64358 15.4914L9.59936 15.5196L9.57715 15.5339L9.53245 15.5632L9.50996 15.5781L9.46477 15.6084L9.41924 15.6393C9.38842 15.6605 9.35774 15.6819 9.32722 15.7035L9.28069 15.7366C9.24121 15.765 9.20197 15.7936 9.16297 15.8226L9.11529 15.8583L9.06728 15.8946C9.04319 15.913 9.01896 15.9317 8.99463 15.9506L8.94578 15.9888L8.8966 16.0277L8.84708 16.0674L8.79721 16.1078L8.74701 16.1489C8.73021 16.1627 8.71337 16.1767 8.69647 16.1908L8.64559 16.2334C8.62857 16.2477 8.6115 16.2622 8.59437 16.2768L8.5428 16.3209C8.52555 16.3357 8.50826 16.3506 8.49091 16.3657L8.43866 16.4113L8.35963 16.4811L8.30651 16.5286L8.27985 16.5526L8.22621 16.6013L8.17223 16.6506L8.1179 16.7008L8.09059 16.7261L8.03574 16.7774L8.0082 16.8033L7.93893 16.8689L7.8691 16.9358L7.81286 16.9902L7.75626 17.0453L7.72782 17.0731L7.67069 17.1294L7.61321 17.1865L7.46618 17.3335L8.32788 18.1929L8.33315 18.19C9.09985 17.7648 10.0953 17.8863 10.758 18.549ZM8.86535 19.4898L8.51119 19.844C8.25617 20.099 8.25779 20.515 8.51286 20.7783L8.52068 20.7863L9.99317 22.2588C10.2534 22.519 10.6694 22.5257 10.9277 22.2759L10.9354 22.2683L11.2896 21.9141C11.5446 21.6591 11.543 21.2431 11.2879 20.9798L11.2801 20.9718L9.80762 19.4993C9.54741 19.2391 9.13136 19.2324 8.87313 19.4822L8.86535 19.4898Z" fill="white"/>
<path d="M10.2596 6.41683H18.543V7.5835H10.318L12.1263 9.39183L11.2513 10.2085L8.04297 7.00016L11.2513 3.79183L12.068 4.6085L10.2596 6.41683Z" fill="white"/>
</svg>
