<svg width="100%" height="100%" viewBox="0 0 27 28" fill="none" xmlns="http://www.w3.org/2000/svg">
<path d="M7.798 8L7.79797 8.00091L7.96695 8.00094C13.8485 8.00094 14.029 10.2075 13.9975 13.1154L13.9952 13.3125L13.9912 13.6118C13.9886 13.8129 13.9865 14.0167 13.9865 14.2229V21.7781C13.9865 25.2144 11.2915 28 7.96695 28H6.0321C2.70757 28 0.012515 25.2144 0.012515 21.7781V14.2229C0.012515 14.0511 0.0110874 13.8809 0.00918336 13.7126L0.0067472 13.5116L0.0042273 13.3124L0.00204322 13.1154C-0.0266568 10.2075 0.165619 8.00094 6.0321 8.00094H7.13633L7.798 8ZM12.6425 19.1004H1.35649V21.7781C1.35649 24.4341 3.412 26.5853 5.95487 26.628L6.0321 26.6287H7.96695C10.5195 26.6287 12.6005 24.5041 12.6419 21.8584L12.6425 21.7781V19.1004ZM6.45585 9.37234H5.99133L5.91041 9.37262L5.83033 9.37325L5.751 9.37413L5.67249 9.37533L5.59479 9.37685L5.55624 9.37771L5.47968 9.37965L5.44172 9.38074L5.3664 9.38311L5.32902 9.38442L5.25482 9.38725L5.18146 9.39039C5.1571 9.39145 5.13293 9.39259 5.10885 9.39379L5.00142 9.39945L4.93074 9.40359L4.89574 9.40576L4.82622 9.41033L4.79178 9.41273L4.72343 9.41773L4.6391 9.42439L4.55594 9.4315L4.4903 9.4375L4.42543 9.44379L4.36131 9.45036L4.29792 9.45722L4.23531 9.46436L4.20428 9.46802L4.1428 9.47556L4.11233 9.47944L4.05199 9.48742L4.02209 9.4915L3.96287 9.49987C3.72744 9.53398 3.50994 9.57473 3.3098 9.62181L3.26012 9.63372C3.14251 9.66226 3.02588 9.69485 2.91043 9.73143C2.84603 9.75195 2.78443 9.77306 2.72558 9.79477L2.68671 9.80934L2.64866 9.82408C2.2281 9.98973 1.95448 10.1887 1.77663 10.4222C1.59225 10.6643 1.47355 10.9943 1.40815 11.4754L1.40322 11.5125L1.39972 11.54C1.39689 11.5628 1.39415 11.5857 1.39154 11.6085L1.38849 11.636L1.38454 11.6733L1.37962 11.7233L1.37614 11.7612L1.37287 11.7994L1.36979 11.8383L1.36604 11.891L1.36259 11.9448L1.36021 11.9862L1.35803 12.0284L1.3554 12.0862L1.35304 12.1458L1.3515 12.1919L1.34926 12.2716L1.34784 12.3381L1.34663 12.4072L1.34616 12.4428L1.34537 12.5163L1.34481 12.5929L1.3445 12.7141L1.3447 12.8433L1.34523 12.9577L1.34677 13.1543L1.34943 13.3971L1.35349 13.7332L1.35576 13.9866L1.35646 14.1626V17.729H6.46705L6.46559 16.6638L6.46691 16.664C5.50105 16.5177 4.76 15.6681 4.76 14.6419V12.5595C4.76 11.5448 5.4845 10.7027 6.43446 10.5426L6.45739 10.5389L6.45585 9.37234ZM9.268 12.5595V14.6419C9.268 15.5887 8.63719 16.3852 7.78103 16.6177C7.79055 16.6151 7.80007 16.6124 7.80951 16.6097L7.81102 17.7291H12.6425L12.6426 14.1502L12.6437 13.9351L12.6458 13.7164L12.6522 13.2086L12.654 13.0254L12.655 12.8796L12.6555 12.7433V12.651L12.6552 12.5566L12.6545 12.4669L12.6537 12.4024L12.6531 12.3608L12.652 12.3001L12.6501 12.2224L12.6485 12.1663L12.6466 12.112L12.6445 12.0593L12.6421 12.008L12.6395 11.9581L12.6366 11.9094L12.6334 11.8618L12.63 11.8151L12.6263 11.7692L12.6237 11.739L12.6195 11.6941L12.6152 11.6517C12.6109 11.6106 12.6062 11.5696 12.6011 11.5287L12.5959 11.4877C12.5316 10.9968 12.4128 10.6625 12.2263 10.4184C12.1098 10.2658 11.9518 10.128 11.7378 10.0046L11.7083 9.98782C11.5838 9.91842 11.4411 9.85368 11.2774 9.79354L11.2377 9.7792L11.1972 9.76503C11.1631 9.75332 11.1281 9.74175 11.0923 9.73038C10.9928 9.69893 10.8924 9.67049 10.7912 9.64509L10.7422 9.63295C10.7258 9.62895 10.7092 9.62498 10.6925 9.62107L10.642 9.60947L10.5908 9.59812L10.565 9.59255L10.5127 9.58161L10.4863 9.57624L10.4329 9.5657L10.3788 9.55541C10.3421 9.54858 10.3052 9.54201 10.2684 9.5357L10.212 9.52624C10.1641 9.51836 10.1161 9.51087 10.068 9.50379L10.0091 9.4953L9.94941 9.48707C9.91939 9.48302 9.88907 9.47907 9.85849 9.47524L9.79692 9.46773L9.73462 9.46047L9.67156 9.4535L9.60772 9.44682L9.54316 9.44039C9.52148 9.4383 9.4997 9.43628 9.4778 9.43428L9.4117 9.42842C9.38952 9.42653 9.36723 9.42468 9.3448 9.42288L9.27716 9.41759C9.25448 9.41588 9.23168 9.41422 9.20875 9.41262L9.13956 9.4079L9.03431 9.40139L8.96319 9.39739L8.92735 9.39553L8.85503 9.39199L8.78195 9.38873L8.70808 9.38576L8.67084 9.38439L8.5958 9.38185L8.558 9.38071L8.46261 9.37814L8.36595 9.37605L8.28775 9.37471L8.20876 9.37365L8.16894 9.37325L8.08875 9.37265L8.00775 9.37236H7.79982L7.80144 10.5894L7.80724 10.591C8.65004 10.8325 9.268 11.6223 9.268 12.5595ZM7.26443 11.8865H6.76357C6.40293 11.8865 6.10991 12.1818 6.10408 12.5483L6.104 12.5595V14.6419C6.104 15.0099 6.39341 15.3089 6.75265 15.3148L6.76357 15.3149H7.26443C7.62507 15.3149 7.91809 15.0196 7.92392 14.653L7.924 14.6419V12.5595C7.924 12.1915 7.63459 11.8925 7.27535 11.8866L7.26443 11.8865Z" fill="white"/>
<path d="M11.3853 2.86904L11.7925 3.13782C12.0174 3.28628 12.0672 3.57227 11.9039 3.7766L10.2767 5.81144C10.1133 6.0158 9.79849 6.06108 9.57363 5.91262L9.1664 5.64384C8.94151 5.49538 8.89168 5.20939 9.05504 5.00503L10.6822 2.97019C10.8456 2.76586 11.1604 2.72061 11.3853 2.86904ZM2.31775 2.97022L3.94492 5.00506C4.10831 5.20939 4.05848 5.49538 3.83356 5.64384L3.4264 5.91262C3.20147 6.06108 2.88673 6.0158 2.72331 5.81144L1.09617 3.7766C0.932776 3.57227 0.982606 3.28628 1.20753 3.13782L1.61473 2.86904C1.83959 2.72058 2.15436 2.76586 2.31775 2.97022ZM7.28068 2.45731V4.97253C7.28068 5.22511 7.05534 5.42984 6.77735 5.42984H6.27402C5.99602 5.42984 5.77069 5.22511 5.77069 4.97253V2.45731C5.77069 2.20473 5.99602 2 6.27402 2H6.77735C7.05534 2 7.28068 2.20473 7.28068 2.45731Z" fill="white"/>
<path d="M20.5846 9.74183V1.4585H19.418V9.6835L17.6096 7.87516L16.793 8.75016L20.0013 11.9585L23.2096 8.75016L22.393 7.9335L20.5846 9.74183Z" fill="white"/>
</svg>
