<svg width="100%" height="100%" viewBox="0 0 22 26" fill="none" xmlns="http://www.w3.org/2000/svg">
<path d="M7.798 6L7.79797 6.00091L7.96695 6.00094C13.8485 6.00094 14.029 8.20747 13.9975 11.1154L13.9952 11.3125L13.9912 11.6118C13.9886 11.8129 13.9865 12.0167 13.9865 12.2229V19.7781C13.9865 23.2144 11.2915 26 7.96695 26H6.0321C2.70757 26 0.012515 23.2144 0.012515 19.7781V12.2229C0.012515 12.0511 0.0110874 11.8809 0.00918336 11.7126L0.0067472 11.5116L0.0042273 11.3124L0.00204322 11.1154C-0.0266568 8.20747 0.165619 6.00094 6.0321 6.00094H7.13633L7.798 6ZM12.6425 17.1004H1.35649V19.7781C1.35649 22.4341 3.412 24.5853 5.95487 24.628L6.0321 24.6287H7.96695C10.5195 24.6287 12.6005 22.5041 12.6419 19.8584L12.6425 19.7781V17.1004ZM6.45585 7.37234H5.99133L5.91041 7.37262L5.83033 7.37325L5.751 7.37413L5.67249 7.37533L5.59479 7.37685L5.55624 7.37771L5.47968 7.37965L5.44172 7.38074L5.3664 7.38311L5.32902 7.38442L5.25482 7.38725L5.18146 7.39039C5.1571 7.39145 5.13293 7.39259 5.10885 7.39379L5.00142 7.39945L4.93074 7.40359L4.89574 7.40576L4.82622 7.41033L4.79178 7.41273L4.72343 7.41773L4.6391 7.42439L4.55594 7.4315L4.4903 7.4375L4.42543 7.44379L4.36131 7.45036L4.29792 7.45722L4.23531 7.46436L4.20428 7.46802L4.1428 7.47556L4.11233 7.47944L4.05199 7.48742L4.02209 7.4915L3.96287 7.49987C3.72744 7.53398 3.50994 7.57473 3.3098 7.62181L3.26012 7.63372C3.14251 7.66226 3.02588 7.69485 2.91043 7.73143C2.84603 7.75195 2.78443 7.77306 2.72558 7.79477L2.68671 7.80934L2.64866 7.82408C2.2281 7.98973 1.95448 8.18873 1.77663 8.42223C1.59225 8.6643 1.47355 8.99434 1.40815 9.47541L1.40322 9.51255L1.39972 9.53998C1.39689 9.56283 1.39415 9.58569 1.39154 9.60854L1.38849 9.63603L1.38454 9.67326L1.37962 9.72325L1.37614 9.76117L1.37287 9.79945L1.36979 9.8383L1.36604 9.89096L1.36259 9.94484L1.36021 9.98618L1.35803 10.0284L1.3554 10.0862L1.35304 10.1458L1.3515 10.1919L1.34926 10.2716L1.34784 10.3381L1.34663 10.4072L1.34616 10.4428L1.34537 10.5163L1.34481 10.5929L1.3445 10.7141L1.3447 10.8433L1.34523 10.9577L1.34677 11.1543L1.34943 11.3971L1.35349 11.7332L1.35576 11.9866L1.35646 12.1626V15.729H6.46705L6.46559 14.6638L6.46691 14.664C5.50105 14.5177 4.76 13.6681 4.76 12.6419V10.5595C4.76 9.54478 5.4845 8.70273 6.43446 8.54257L6.45739 8.53885L6.45585 7.37234ZM9.268 10.5595V12.6419C9.268 13.5887 8.63719 14.3852 7.78103 14.6177C7.79055 14.6151 7.80007 14.6124 7.80951 14.6097L7.81102 15.7291H12.6425L12.6426 12.1502L12.6437 11.9351L12.6458 11.7164L12.6522 11.2086L12.654 11.0254L12.655 10.8796L12.6555 10.7433V10.651L12.6552 10.5566L12.6545 10.4669L12.6537 10.4024L12.6531 10.3608L12.652 10.3001L12.6501 10.2224L12.6485 10.1663L12.6466 10.112L12.6445 10.0593L12.6421 10.008L12.6395 9.95813L12.6366 9.90944L12.6334 9.86182L12.63 9.81511L12.6263 9.76922L12.6237 9.739L12.6195 9.69411L12.6152 9.65169C12.6109 9.61063 12.6062 9.56962 12.6011 9.52866L12.5959 9.48766C12.5316 8.99677 12.4128 8.6625 12.2263 8.4184C12.1098 8.26584 11.9518 8.12799 11.7378 8.00456L11.7083 7.98782C11.5838 7.91842 11.4411 7.85368 11.2774 7.79354L11.2377 7.7792L11.1972 7.76503C11.1631 7.75332 11.1281 7.74175 11.0923 7.73038C10.9928 7.69893 10.8924 7.67049 10.7912 7.64509L10.7422 7.63295C10.7258 7.62895 10.7092 7.62498 10.6925 7.62107L10.642 7.60947L10.5908 7.59812L10.565 7.59255L10.5127 7.58161L10.4863 7.57624L10.4329 7.5657L10.3788 7.55541C10.3421 7.54858 10.3052 7.54201 10.2684 7.5357L10.212 7.52624C10.1641 7.51836 10.1161 7.51087 10.068 7.50379L10.0091 7.4953L9.94941 7.48707C9.91939 7.48302 9.88907 7.47907 9.85849 7.47524L9.79692 7.46773L9.73462 7.46047L9.67156 7.4535L9.60772 7.44682L9.54316 7.44039C9.52148 7.4383 9.4997 7.43628 9.4778 7.43428L9.4117 7.42842C9.38952 7.42653 9.36723 7.42468 9.3448 7.42288L9.27716 7.41759C9.25448 7.41588 9.23168 7.41422 9.20875 7.41262L9.13956 7.4079L9.03431 7.40139L8.96319 7.39739L8.92735 7.39553L8.85503 7.39199L8.78195 7.38873L8.70808 7.38576L8.67084 7.38439L8.5958 7.38185L8.558 7.38071L8.46261 7.37814L8.36595 7.37605L8.28775 7.37471L8.20876 7.37365L8.16894 7.37325L8.08875 7.37265L8.00775 7.37236H7.79982L7.80144 8.58936L7.80724 8.59102C8.65004 8.8325 9.268 9.62234 9.268 10.5595ZM7.26443 9.88647H6.76357C6.40293 9.88647 6.10991 10.1818 6.10408 10.5483L6.104 10.5595V12.6419C6.104 13.0099 6.39341 13.3089 6.75265 13.3148L6.76357 13.3149H7.26443C7.62507 13.3149 7.91809 13.0196 7.92392 12.653L7.924 12.6419V10.5595C7.924 10.1915 7.63459 9.8925 7.27535 9.88656L7.26443 9.88647Z" fill="white"/>
<path d="M13.7651 1.03401L13.2951 0.903041C13.0356 0.830706 12.787 0.980726 12.74 1.23807L12.2718 3.80111C12.2248 4.0585 12.3971 4.32576 12.6567 4.39807L13.1267 4.52907C13.3863 4.6014 13.6348 4.45138 13.6819 4.19402L14.15 1.63098C14.1971 1.37361 14.0247 1.10637 13.7651 1.03401ZM19.6376 7.94376L17.0344 8.05069C16.773 8.06143 16.5898 8.28667 16.6254 8.55382L16.6896 9.03744C16.7251 9.30459 16.9658 9.51243 17.2273 9.50169L19.8305 9.39473C20.0919 9.38399 20.275 9.15876 20.2395 8.89161L20.1752 8.40796C20.1397 8.14086 19.8991 7.933 19.6376 7.94376ZM16.7687 3.8617L14.8705 5.51183C14.6799 5.67753 14.6732 5.98191 14.8556 6.19172L15.1858 6.57159C15.3682 6.78139 15.6705 6.81714 15.8611 6.65143L17.7594 5.0013C17.95 4.83559 17.9567 4.53121 17.7743 4.32141L17.4441 3.94154C17.2617 3.73173 16.9594 3.69599 16.7687 3.8617Z" fill="white"/>
</svg>
