<svg width="100%" height="100%" viewBox="0 0 14 34" fill="none" xmlns="http://www.w3.org/2000/svg">
<path d="M7.798 14L7.79797 14.0009L7.96695 14.0009C13.8485 14.0009 14.029 16.2075 13.9975 19.1154L13.9952 19.3125L13.9912 19.6118C13.9886 19.8129 13.9865 20.0167 13.9865 20.2229V27.7781C13.9865 31.2144 11.2915 34 7.96695 34H6.0321C2.70757 34 0.012515 31.2144 0.012515 27.7781V20.2229C0.012515 20.0511 0.0110874 19.8809 0.00918336 19.7126L0.0067472 19.5116L0.0042273 19.3124L0.00204322 19.1154C-0.0266568 16.2075 0.165619 14.0009 6.0321 14.0009H7.13633L7.798 14ZM12.6425 25.1004H1.35649V27.7781C1.35649 30.4341 3.412 32.5853 5.95487 32.628L6.0321 32.6287H7.96695C10.5195 32.6287 12.6005 30.5041 12.6419 27.8584L12.6425 27.7781V25.1004ZM6.45585 15.3723H5.99133L5.91041 15.3726L5.83033 15.3732L5.751 15.3741L5.67249 15.3753L5.59479 15.3768L5.55624 15.3777L5.47968 15.3796L5.44172 15.3807L5.3664 15.3831L5.32902 15.3844L5.25482 15.3872L5.18146 15.3904C5.1571 15.3914 5.13293 15.3926 5.10885 15.3938L5.00142 15.3994L4.93074 15.4036L4.89574 15.4058L4.82622 15.4103L4.79178 15.4127L4.72343 15.4177L4.6391 15.4244L4.55594 15.4315L4.4903 15.4375L4.42543 15.4438L4.36131 15.4504L4.29792 15.4572L4.23531 15.4644L4.20428 15.468L4.1428 15.4756L4.11233 15.4794L4.05199 15.4874L4.02209 15.4915L3.96287 15.4999C3.72744 15.534 3.50994 15.5747 3.3098 15.6218L3.26012 15.6337C3.14251 15.6623 3.02588 15.6948 2.91043 15.7314C2.84603 15.7519 2.78443 15.7731 2.72558 15.7948L2.68671 15.8093L2.64866 15.8241C2.2281 15.9897 1.95448 16.1887 1.77663 16.4222C1.59225 16.6643 1.47355 16.9943 1.40815 17.4754L1.40322 17.5125L1.39972 17.54C1.39689 17.5628 1.39415 17.5857 1.39154 17.6085L1.38849 17.636L1.38454 17.6733L1.37962 17.7233L1.37614 17.7612L1.37287 17.7994L1.36979 17.8383L1.36604 17.891L1.36259 17.9448L1.36021 17.9862L1.35803 18.0284L1.3554 18.0862L1.35304 18.1458L1.3515 18.1919L1.34926 18.2716L1.34784 18.3381L1.34663 18.4072L1.34616 18.4428L1.34537 18.5163L1.34481 18.5929L1.3445 18.7141L1.3447 18.8433L1.34523 18.9577L1.34677 19.1543L1.34943 19.3971L1.35349 19.7332L1.35576 19.9866L1.35646 20.1626V23.729H6.46705L6.46559 22.6638L6.46691 22.664C5.50105 22.5177 4.76 21.6681 4.76 20.6419V18.5595C4.76 17.5448 5.4845 16.7027 6.43446 16.5426L6.45739 16.5389L6.45585 15.3723ZM9.268 18.5595V20.6419C9.268 21.5887 8.63719 22.3852 7.78103 22.6177C7.79055 22.6151 7.80007 22.6124 7.80951 22.6097L7.81102 23.7291H12.6425L12.6426 20.1502L12.6437 19.9351L12.6458 19.7164L12.6522 19.2086L12.654 19.0254L12.655 18.8796L12.6555 18.7433V18.651L12.6552 18.5566L12.6545 18.4669L12.6537 18.4024L12.6531 18.3608L12.652 18.3001L12.6501 18.2224L12.6485 18.1663L12.6466 18.112L12.6445 18.0593L12.6421 18.008L12.6395 17.9581L12.6366 17.9094L12.6334 17.8618L12.63 17.8151L12.6263 17.7692L12.6237 17.739L12.6195 17.6941L12.6152 17.6517C12.6109 17.6106 12.6062 17.5696 12.6011 17.5287L12.5959 17.4877C12.5316 16.9968 12.4128 16.6625 12.2263 16.4184C12.1098 16.2658 11.9518 16.128 11.7378 16.0046L11.7083 15.9878C11.5838 15.9184 11.4411 15.8537 11.2774 15.7935L11.2377 15.7792L11.1972 15.765C11.1631 15.7533 11.1281 15.7417 11.0923 15.7304C10.9928 15.6989 10.8924 15.6705 10.7912 15.6451L10.7422 15.633C10.7258 15.629 10.7092 15.625 10.6925 15.6211L10.642 15.6095L10.5908 15.5981L10.565 15.5926L10.5127 15.5816L10.4863 15.5762L10.4329 15.5657L10.3788 15.5554C10.3421 15.5486 10.3052 15.542 10.2684 15.5357L10.212 15.5262C10.1641 15.5184 10.1161 15.5109 10.068 15.5038L10.0091 15.4953L9.94941 15.4871C9.91939 15.483 9.88907 15.4791 9.85849 15.4752L9.79692 15.4677L9.73462 15.4605L9.67156 15.4535L9.60772 15.4468L9.54316 15.4404C9.52148 15.4383 9.4997 15.4363 9.4778 15.4343L9.4117 15.4284C9.38952 15.4265 9.36723 15.4247 9.3448 15.4229L9.27716 15.4176C9.25448 15.4159 9.23168 15.4142 9.20875 15.4126L9.13956 15.4079L9.03431 15.4014L8.96319 15.3974L8.92735 15.3955L8.85503 15.392L8.78195 15.3887L8.70808 15.3858L8.67084 15.3844L8.5958 15.3818L8.558 15.3807L8.46261 15.3781L8.36595 15.376L8.28775 15.3747L8.20876 15.3736L8.16894 15.3732L8.08875 15.3726L8.00775 15.3724H7.79982L7.80144 16.5894L7.80724 16.591C8.65004 16.8325 9.268 17.6223 9.268 18.5595ZM7.26443 17.8865H6.76357C6.40293 17.8865 6.10991 18.1818 6.10408 18.5483L6.104 18.5595V20.6419C6.104 21.0099 6.39341 21.3089 6.75265 21.3148L6.76357 21.3149H7.26443C7.62507 21.3149 7.91809 21.0196 7.92392 20.653L7.924 20.6419V18.5595C7.924 18.1915 7.63459 17.8925 7.27535 17.8866L7.26443 17.8865Z" fill="white"/>
<path d="M7.58464 4.25817V12.5415H6.41797V4.3165L4.60964 6.12484L3.79297 5.24984L7.0013 2.0415L10.2096 5.24984L9.39297 6.0665L7.58464 4.25817Z" fill="white"/>
</svg>
