<svg width="100%" height="100%" viewBox="0 0 26 37" fill="none" xmlns="http://www.w3.org/2000/svg">
<path d="M19.5094 16.3644L19.5088 16.3651L19.3893 16.2456C15.2304 12.0867 13.5425 13.5193 11.5086 15.5978L11.3709 15.7388L11.162 15.9533C11.0217 16.0973 10.879 16.2429 10.7332 16.3887L5.39088 21.731C2.96107 24.1608 2.89702 28.0363 5.24781 30.3871L6.61596 31.7552C8.96676 34.106 12.8422 34.042 15.272 31.6122L20.6143 26.2698C20.7358 26.1483 20.8572 26.029 20.9775 25.9113L21.1214 25.7709L21.264 25.6319L21.4049 25.4941C23.4814 23.4582 24.9057 21.762 20.7574 17.6137L19.9766 16.8329L19.5094 16.3644ZM8.23463 20.788L16.2151 28.7684L14.3217 30.6618C12.4436 32.5399 9.46902 32.6075 7.64071 30.8397L7.58565 30.7855L6.2175 29.4174C4.41256 27.6125 4.44337 24.6386 6.28488 22.7386L6.34121 22.6814L8.23463 20.788ZM19.4881 18.2838L19.8165 18.6123L19.8736 18.6697L19.9297 18.7268L19.9852 18.7835L20.0399 18.8399L20.0937 18.8959L20.1204 18.9238L20.1732 18.9793L20.1992 19.0069L20.2508 19.0618L20.2763 19.0892L20.3268 19.1436L20.3764 19.1977C20.3929 19.2157 20.4092 19.2336 20.4254 19.2515L20.4973 19.3314L20.5444 19.3843L20.5676 19.4106L20.6135 19.463L20.6362 19.4891L20.681 19.5409L20.7359 19.6053L20.7897 19.6691L20.8318 19.7198L20.8733 19.7701L20.914 19.8201L20.9539 19.8697L20.9932 19.9191L21.0125 19.9436L21.0507 19.9924L21.0695 20.0167L21.1065 20.065L21.1247 20.089L21.1607 20.1368C21.303 20.3274 21.428 20.51 21.5363 20.6848L21.563 20.7284C21.626 20.8317 21.6854 20.9372 21.7411 21.0447C21.7722 21.1048 21.8008 21.1633 21.8271 21.2202L21.8442 21.258L21.8607 21.2954C22.041 21.7099 22.0937 22.0441 22.0544 22.3349C22.0136 22.6365 21.8642 22.9538 21.5702 23.3402L21.5475 23.3699L21.5305 23.3918C21.5164 23.41 21.5022 23.4281 21.4878 23.4461L21.4706 23.4677L21.447 23.4968L21.4152 23.5356L21.3908 23.5649L21.3661 23.5943L21.3408 23.6239L21.3062 23.6638L21.2705 23.7043L21.243 23.7353L21.2147 23.7666L21.1757 23.8094L21.1351 23.8532L21.1036 23.8869L21.0489 23.9448L21.0029 23.9928L20.9548 24.0426L20.93 24.0681L20.8786 24.1206L20.8249 24.1751L20.7394 24.2611L20.6478 24.3523L20.5666 24.4328L20.4265 24.5708L20.2529 24.7406L20.0124 24.9753L19.8316 25.1529L19.7067 25.2768L17.1848 27.7987L13.5711 24.185L14.3253 23.4328L14.3243 23.432C15.1107 24.0115 16.2354 23.9348 16.9611 23.2091L18.4336 21.7366C19.1511 21.0191 19.2342 19.9114 18.6757 19.1264L18.6621 19.1076L19.4881 18.2838ZM15.2459 18.549L13.7734 20.0215C13.104 20.691 12.9868 21.7002 13.4278 22.47C13.4229 22.4614 13.418 22.4528 13.4133 22.4442L12.6207 23.2347L9.20433 19.8183L11.7349 17.2876L11.8862 17.1348L12.0394 16.9786L12.394 16.615L12.5222 16.4842L12.6246 16.3804L12.7206 16.2837L12.7859 16.2184L12.8529 16.1519L12.9168 16.0889L12.9629 16.0439L12.9928 16.0149L13.0365 15.9727L13.0928 15.9191L13.1336 15.8806L13.1733 15.8435L13.2121 15.8077L13.25 15.7732L13.2872 15.7398L13.3236 15.7074L13.3595 15.6759L13.395 15.6453L13.4301 15.6155L13.4533 15.596L13.488 15.5672L13.521 15.5403C13.5531 15.5142 13.5854 15.4886 13.618 15.4632L13.6507 15.4379C14.0432 15.1363 14.3636 14.9839 14.6681 14.9432C14.8583 14.9177 15.0675 14.932 15.3061 14.996L15.3388 15.005C15.4759 15.044 15.6226 15.0991 15.7809 15.1723L15.8191 15.1903L15.8578 15.2089C15.8902 15.2247 15.9231 15.2412 15.9564 15.2585C16.049 15.3067 16.1401 15.3575 16.2296 15.4111L16.2729 15.4372C16.2873 15.446 16.3019 15.4549 16.3164 15.464L16.3603 15.4914L16.4045 15.5196L16.4268 15.5339L16.4715 15.5632L16.4939 15.5781L16.5391 15.6084L16.5847 15.6393C16.6155 15.6605 16.6462 15.6819 16.6767 15.7035L16.7232 15.7366C16.7627 15.765 16.8019 15.7936 16.8409 15.8226L16.8886 15.8583L16.9366 15.8946C16.9607 15.913 16.9849 15.9317 17.0093 15.9506L17.0581 15.9888L17.1073 16.0277L17.1568 16.0674L17.2067 16.1078L17.2569 16.1489C17.2737 16.1627 17.2905 16.1767 17.3074 16.1908L17.3583 16.2334C17.3753 16.2477 17.3924 16.2622 17.4095 16.2768L17.4611 16.3209C17.4784 16.3357 17.4956 16.3506 17.513 16.3657L17.5652 16.4113L17.6443 16.4811L17.6974 16.5286L17.7241 16.5526L17.7777 16.6013L17.8317 16.6506L17.886 16.7008L17.9133 16.7261L17.9682 16.7774L17.9957 16.8033L18.065 16.8689L18.1348 16.9358L18.191 16.9902L18.2477 17.0453L18.2761 17.0731L18.3332 17.1294L18.3907 17.1865L18.5377 17.3335L17.676 18.1929L17.6708 18.19C16.9041 17.7648 15.9086 17.8863 15.2459 18.549ZM17.1386 19.4898L17.4927 19.844C17.7477 20.099 17.7461 20.515 17.491 20.7783L17.4832 20.7863L16.0107 22.2588C15.7505 22.519 15.3345 22.5257 15.0763 22.2759L15.0685 22.2683L14.7143 21.9141C14.4593 21.6591 14.4609 21.2431 14.716 20.9798L14.7238 20.9718L16.1963 19.4993C16.4565 19.2391 16.8726 19.2324 17.1308 19.4822L17.1386 19.4898Z" fill="white"/>
<path d="M15.7404 6.41683H7.45703V7.5835H15.682L13.8737 9.39183L14.7487 10.2085L17.957 7.00016L14.7487 3.79183L13.932 4.6085L15.7404 6.41683Z" fill="white"/>
</svg>
