<svg width="42" height="26" viewBox="0 0 42 26" fill="none" xmlns="http://www.w3.org/2000/svg">
<path d="M1.74524 6.03774L3.04547 6.04106V8.20425L4.3557 8.19761V9.49154L3.05548 9.48822L3.05712 12.5389L4.34401 12.0877L4.33733 13.3418L3.03711 13.813V18.7365C3.03711 18.846 2.7604 19.2574 2.63704 19.4134C2.51367 19.5693 2.2903 19.7617 2.11694 19.7982C1.98073 19.8269 0.00966352 19.9136 0.00993192 19.848L0.013268 18.9788C0.0138816 18.8187 0.446664 18.9456 0.890107 18.9091C1.33355 18.8725 1.73113 18.7797 1.74781 18.3683C1.76449 17.9569 1.74693 14.2343 1.74693 14.2343L0.0133064 14.6722V13.3319L1.76027 12.9072L1.74697 9.4833L0.00667236 9.49658L0 8.18277L1.74701 8.18941L1.74524 6.03774ZM5.64761 6.03278L7.3879 6.03942L7.83464 7.75804L10.2151 7.7641L10.7485 6.03942H12.1888L11.6153 7.76464L13.0623 7.75804L13.0689 9.0586L11.7487 9.04532L11.7421 12.9404L13.4757 12.9139L13.489 14.2144H11.7421L11.7554 19.8613L10.4152 19.8546L10.4285 14.2144L7.8014 14.2343L7.82808 16.6894C7.82808 16.6894 7.5674 17.3699 7.39469 17.6781C7.22197 17.9864 6.78459 18.6967 6.50788 18.9986C6.23117 19.3005 6.15451 19.4747 5.5777 19.7351C5.00093 19.9956 4.35413 19.8977 4.34082 19.8413C4.32748 19.7849 4.22413 19.0185 4.3475 18.9654C4.47086 18.9123 4.94762 18.6137 5.26767 18.2222C5.58771 17.8308 5.90108 17.4791 6.01443 17.28C6.12779 17.0809 6.50784 16.5102 6.52786 16.1851C6.54788 15.86 6.52119 14.2343 6.52119 14.2343H4.3475L4.35582 12.9437L6.5279 12.9337L6.53461 9.05192H5.22771L5.22104 7.75136L6.52126 7.76464L5.64761 6.03278ZM7.81486 9.05196V12.9138L10.4286 12.9271V9.05196H7.81486ZM32.5647 6.15142C32.5647 6.15142 34.415 6.1091 34.525 6.15142C34.6351 6.19374 33.9916 6.99081 33.9916 6.99081L35.0851 6.98749C35.0851 6.98749 39.9423 6.99497 40.1927 6.98749C40.4431 6.98001 40.7061 7.87336 40.026 8.55346C38.9128 9.6667 35.4585 11.4665 35.3652 11.8647C35.2718 12.2628 35.2452 12.7074 35.5785 12.6676C35.9119 12.6278 40.5226 12.5914 40.9194 12.641C41.3164 12.6906 41.6462 13.716 40.5927 14.6184C39.5392 15.5208 37.5577 17.1367 35.6907 18.132C33.8237 19.1273 31.4411 19.7576 30.5343 19.8671C29.8844 19.9456 28.0038 20.0562 27.9505 19.9666C27.8972 19.877 27.9372 18.6661 27.9905 18.6528C28.0438 18.6395 30.0142 18.6229 31.1644 18.2016C32.3146 17.7802 33.6681 17.3025 33.8448 17.1001C34.0215 16.8977 30.5489 15.6492 30.5243 15.6403C30.4996 15.6314 28.9007 16.2209 28.834 16.1048C28.7673 15.9886 28.8021 14.8045 28.8507 14.791C28.8992 14.7775 30.591 14.2635 31.1777 13.9748C31.7645 13.6862 32.3787 13.0164 32.6654 12.7842C32.9521 12.5519 31.694 12.8266 30.7577 13.0724C29.8214 13.3182 28.0772 13.59 28.0172 13.4639C27.9571 13.3378 27.9305 12.4354 28.0838 12.3226C28.2372 12.2097 30.0463 11.9888 30.519 11.8683C30.9916 11.7478 33.3514 11.1414 32.898 10.9158C32.5126 10.7241 30.2309 9.70818 30.0309 9.68162C29.8308 9.65506 29.3641 9.85415 29.2574 9.90723C29.1507 9.96031 28.5506 10.1461 28.3506 10.093C28.1506 10.0399 28.0172 9.21712 28.0839 9.09768C28.1506 8.97824 28.8173 8.68626 29.004 8.6199C29.1908 8.55354 30.5643 7.98288 30.8177 7.82364C31.0711 7.66439 32.0179 7.02737 32.1513 6.82832C32.2847 6.62931 32.528 6.21625 32.5647 6.15142ZM32.1757 15.0252L35.6163 16.3788L38.4968 13.9901L33.8026 13.9635L32.1757 15.0252ZM32.3357 8.29676L31.4289 9.14611L34.8295 10.4732L37.6833 8.31004L32.3357 8.29676ZM18.5356 6.01881C18.5356 6.01881 20.386 5.97649 20.496 6.01881C20.606 6.06113 19.9626 6.8582 19.9626 6.8582L21.0561 6.85488C21.0561 6.85488 25.9132 6.86236 26.1636 6.85488C26.414 6.8474 26.677 7.74071 25.9969 8.42085C24.8837 9.53409 21.4294 11.3339 21.3361 11.732C21.2428 12.1302 21.2161 12.5748 21.5495 12.5349C21.8829 12.4951 26.4935 12.4587 26.8904 12.5084C27.2873 12.558 27.6172 13.5833 26.5637 14.4857C25.5102 15.3882 23.5286 17.0041 21.6616 17.9994C19.7946 18.9947 17.4121 19.625 16.5053 19.7345C15.8554 19.813 13.9749 19.9236 13.9215 19.834C13.8682 19.7444 13.9082 18.5334 13.9615 18.5201C14.0148 18.5069 15.9852 18.4903 17.1354 18.0689C18.2856 17.6475 19.6391 17.1698 19.8158 16.9674C19.9925 16.765 16.5199 15.5165 16.4953 15.5076C16.4706 15.4987 14.8717 16.0882 14.805 15.9721C14.7383 15.856 14.7731 14.6718 14.8217 14.6583C14.8703 14.6448 16.562 14.1308 17.1487 13.8421C17.7355 13.5535 18.3497 12.8837 18.6364 12.6515C18.9231 12.4193 17.665 12.6939 16.7287 12.9397C15.7924 13.1855 14.0482 13.4573 13.9882 13.3312C13.9282 13.2051 13.9015 12.3027 14.0548 12.1899C14.2082 12.0771 16.0173 11.8561 16.49 11.7356C16.9626 11.6151 19.3224 11.0087 18.869 10.7831C18.4836 10.5914 16.2019 9.57549 16.0018 9.54893C15.8018 9.52237 15.3351 9.72146 15.2283 9.77454C15.1217 9.82762 14.5216 10.0134 14.3215 9.96031C14.1215 9.90723 13.9881 9.08444 14.0548 8.96499C14.1215 8.84555 14.7883 8.55358 14.975 8.48722C15.1617 8.42086 16.5352 7.85019 16.7886 7.69095C17.042 7.5317 17.9888 6.89468 18.1222 6.69563C18.2555 6.4967 18.4989 6.08364 18.5356 6.01881ZM18.1466 14.8926L21.5872 16.2462L24.4677 13.8575L19.7735 13.8309L18.1466 14.8926ZM18.3066 8.16415L17.3998 9.0135L20.8004 10.3406L23.6542 8.17743L18.3066 8.16415Z" fill="white"/>
</svg>
