<svg width="100%" height="100%" viewBox="0 0 46 46" fill="none" xmlns="http://www.w3.org/2000/svg">
<path d="M8.52698 31.1711C8.52698 31.663 8.1191 32.0709 7.62724 32.0709H5.89974C5.40788 32.0709 5 31.663 5 31.1711C5 30.6793 5.40788 30.2714 5.89974 30.2714H7.62724C8.1191 30.2714 8.52698 30.6793 8.52698 31.1711ZM9.4903 25.6407C9.4903 25.8687 9.40632 26.0966 9.22638 26.2765C9.05706 26.4439 8.82861 26.5377 8.59056 26.5377C8.35251 26.5377 8.12406 26.4439 7.95474 26.2765L7.21096 25.5328C6.86306 25.1849 6.86306 24.609 7.21096 24.2611C7.55886 23.9132 8.13469 23.9132 8.48259 24.2611L9.22638 25.0049C9.40632 25.1849 9.4903 25.4128 9.4903 25.6407ZM9.4987 36.7015C9.4987 36.9295 9.41472 37.1574 9.23477 37.3373L8.49099 38.0811C8.32167 38.2484 8.09322 38.3423 7.85517 38.3423C7.61713 38.3423 7.38867 38.2484 7.21936 38.0811C6.87146 37.7332 6.87146 37.1574 7.21936 36.8095L7.96314 36.0657C8.31104 35.7178 8.88687 35.7178 9.23477 36.0657C9.41472 36.2457 9.4987 36.4736 9.4987 36.7015Z" fill="white"/>
<path d="M38.973 31.1711C38.973 31.663 39.3809 32.0709 39.8728 32.0709H41.6003C42.0921 32.0709 42.5 31.663 42.5 31.1711C42.5 30.6793 42.0921 30.2714 41.6003 30.2714H39.8728C39.3809 30.2714 38.973 30.6793 38.973 31.1711ZM38.0097 25.6407C38.0097 25.8687 38.0937 26.0966 38.2736 26.2765C38.4429 26.4439 38.6714 26.5377 38.9094 26.5377C39.1475 26.5377 39.3759 26.4439 39.5453 26.2765L40.289 25.5328C40.6369 25.1849 40.6369 24.609 40.289 24.2611C39.9411 23.9132 39.3653 23.9132 39.0174 24.2611L38.2736 25.0049C38.0937 25.1849 38.0097 25.4128 38.0097 25.6407ZM38.0013 36.7015C38.0013 36.9295 38.0853 37.1574 38.2652 37.3373L39.009 38.0811C39.1783 38.2484 39.4068 38.3423 39.6448 38.3423C39.8829 38.3423 40.1113 38.2484 40.2806 38.0811C40.6285 37.7332 40.6285 37.1574 40.2806 36.8095L39.5369 36.0657C39.189 35.7178 38.6131 35.7178 38.2652 36.0657C38.0853 36.2457 38.0013 36.4736 38.0013 36.7015Z" fill="white"/>
<path d="M17.815 33.63C18.8215 33.63 19.63 32.8215 19.63 31.815C19.63 30.8085 18.8215 30 17.815 30C16.8085 30 16 30.8085 16 31.815C16 32.8215 16.8085 33.63 17.815 33.63ZM23.7534 33.63C24.7599 33.63 25.5684 32.8215 25.5684 31.815C25.5684 30.8085 24.7599 30 23.7534 30C22.7469 30 21.9384 30.8085 21.9384 31.815C21.9384 32.8215 22.7469 33.63 23.7534 33.63ZM29.6933 33.63C30.6998 33.63 31.5084 32.8215 31.5084 31.815C31.5084 30.8085 30.6998 30 29.6933 30C28.6868 30 27.8784 30.8085 27.8784 31.815C27.8784 32.8215 28.6868 33.63 29.6933 33.63Z" fill="white"/>
<rect x="12" y="27" width="23" height="10" rx="5" stroke="white" stroke-width="2"/>
<path d="M26.626 13.269C26.8174 13.269 26.9727 13.4244 26.9727 13.6159V14.0577C26.9727 14.249 26.8175 14.4046 26.626 14.4046H19.3706C19.1792 14.4046 19.024 14.2493 19.024 14.0577V13.6159C19.024 13.4245 19.1792 13.269 19.3706 13.269H26.626Z" fill="white"/>
<path d="M23 24C21.9701 24 20.9531 23.6138 20.1677 22.8287C19.7944 22.4554 19.2666 22.2365 18.7259 22.2365C16.5373 22.2365 14.7607 20.4602 14.7607 18.272C14.7607 17.7314 14.5419 17.2165 14.1685 16.8303C13.4201 16.0778 13 15.0597 13 13.9985C13 12.9373 13.4201 11.9192 14.1685 11.1667C14.5419 10.7934 14.7607 10.2656 14.7607 9.72502C14.7607 7.53679 16.5373 5.76046 18.7259 5.76046C19.2666 5.76046 19.7815 5.54164 20.1677 5.16835C20.9204 4.42004 21.9386 4 23 4C24.0614 4 25.0796 4.42004 25.8323 5.16835C26.2056 5.54164 26.7334 5.76046 27.2741 5.76046C29.4627 5.76046 31.2393 7.53679 31.2393 9.72502C31.2393 10.2656 31.4581 10.7805 31.8315 11.1667C32.5799 11.9192 33 12.9373 33 13.9985C33 15.0597 32.5799 16.0778 31.8315 16.8303C31.4453 17.2036 31.2393 17.7314 31.2393 18.272C31.2393 20.4602 29.4627 22.2365 27.2741 22.2365C26.7334 22.2365 26.2185 22.4554 25.8323 22.8287C25.0469 23.6138 24.0299 24 23 24ZM23 5.92779C22.4722 5.92779 21.9443 6.13374 21.5324 6.53278C20.7986 7.26648 19.7687 7.69125 18.7259 7.69125C17.6058 7.69125 16.6918 8.60516 16.6918 9.72502C16.6918 10.7676 16.267 11.7845 15.5332 12.5311C14.7221 13.342 14.7221 14.655 15.5332 15.4659C16.267 16.1996 16.6918 17.2294 16.6918 18.272C16.6918 19.3918 17.6058 20.3058 18.7259 20.3058C19.7687 20.3058 20.7857 20.7305 21.5324 21.4642C22.3434 22.2752 23.6566 22.2752 24.4676 21.4642C25.2014 20.7305 26.2313 20.3058 27.2741 20.3058C28.3942 20.3058 29.3082 19.3918 29.3082 18.272C29.3082 17.2294 29.733 16.1996 30.4668 15.4659C31.2779 14.655 31.2779 13.342 30.4668 12.5311C29.733 11.7974 29.3082 10.7676 29.3082 9.72502C29.3082 8.60516 28.3942 7.69125 27.2741 7.69125C26.2313 7.69125 25.2143 7.26648 24.4676 6.53278C24.0685 6.13374 23.5278 5.92779 23 5.92779Z" fill="white"/>
</svg>
