<svg width="100%" height="100%" viewBox="0 0 38 34" fill="none" xmlns="http://www.w3.org/2000/svg">
<path d="M24.2606 10H11.7394C11.3352 10 11 9.54667 11 9C11 8.45333 11.3352 8 11.7394 8H24.2606C24.6648 8 25 8.45333 25 9C25 9.54667 24.6648 10 24.2606 10Z" fill="white"/>
<path d="M12.0217 12C12.2703 12 12.5189 11.909 12.7151 11.7141C12.8977 11.5307 13 11.2833 13 11.0254C13 10.7676 12.8977 10.5202 12.7151 10.3368L11.3674 8.99838L12.7151 7.65999C12.8977 7.47659 13 7.22915 13 6.9713C13 6.71346 12.8977 6.46602 12.7151 6.28262C12.3357 5.90579 11.7076 5.90579 11.3282 6.28262L9.287 8.30969C9.10322 8.49242 9 8.74012 9 8.99838C9 9.25663 9.10322 9.50433 9.287 9.68706L11.3282 11.7141C11.5245 11.909 11.7731 12 12.0217 12Z" fill="white"/>
<path d="M23.9783 12C23.7297 12 23.4811 11.909 23.2849 11.7141C23.1023 11.5307 23 11.2833 23 11.0254C23 10.7676 23.1023 10.5202 23.2849 10.3368L24.6326 8.99838L23.2849 7.65999C23.1023 7.47659 23 7.22915 23 6.9713C23 6.71346 23.1023 6.46602 23.2849 6.28262C23.6643 5.90579 24.2924 5.90579 24.6718 6.28262L26.713 8.30969C26.8968 8.49242 27 8.74012 27 8.99838C27 9.25663 26.8968 9.50433 26.713 9.68706L24.6718 11.7141C24.4755 11.909 24.2269 12 23.9783 12Z" fill="white"/>
<path d="M19 2.73944V15.2606C19 15.6648 18.5467 16 18 16C17.4533 16 17 15.6648 17 15.2606V2.73944C17 2.33521 17.4533 2 18 2C18.5467 2 19 2.33521 19 2.73944Z" fill="white"/>
<path d="M21 14.9783C21 14.7297 20.909 14.4811 20.7141 14.2849C20.5307 14.1023 20.2833 14 20.0254 14C19.7676 14 19.5202 14.1023 19.3368 14.2849L17.9984 15.6326L16.66 14.2849C16.4766 14.1023 16.2291 14 15.9713 14C15.7135 14 15.466 14.1023 15.2826 14.2849C14.9058 14.6643 14.9058 15.2924 15.2826 15.6718L17.3097 17.713C17.4924 17.8968 17.7401 18 17.9984 18C18.2566 18 18.5043 17.8968 18.6871 17.713L20.7141 15.6718C20.909 15.4755 21 15.2269 21 14.9783Z" fill="white"/>
<path d="M21 3.02167C21 3.27027 20.909 3.51888 20.7141 3.71515C20.5307 3.89765 20.2833 4 20.0254 4C19.7676 4 19.5202 3.89765 19.3368 3.71515L17.9984 2.36744L16.66 3.71515C16.4766 3.89765 16.2291 4 15.9713 4C15.7135 4 15.466 3.89765 15.2826 3.71515C14.9058 3.3357 14.9058 2.70764 15.2826 2.32819L17.3097 0.286998C17.4924 0.103224 17.7401 -2.16951e-07 17.9984 -2.16951e-07C18.2566 -2.16951e-07 18.5043 0.103224 18.6871 0.286998L20.7141 2.32819C20.909 2.52445 21 2.77306 21 3.02167Z" fill="white"/>
<path d="M3.52698 26.1711C3.52698 26.663 3.1191 27.0709 2.62724 27.0709H0.89974C0.407882 27.0709 0 26.663 0 26.1711C0 25.6793 0.407882 25.2714 0.89974 25.2714H2.62724C3.1191 25.2714 3.52698 25.6793 3.52698 26.1711ZM4.4903 20.6407C4.4903 20.8687 4.40632 21.0966 4.22638 21.2765C4.05706 21.4439 3.82861 21.5377 3.59056 21.5377C3.35251 21.5377 3.12406 21.4439 2.95474 21.2765L2.21096 20.5328C1.86306 20.1849 1.86306 19.609 2.21096 19.2611C2.55886 18.9132 3.13469 18.9132 3.48259 19.2611L4.22638 20.0049C4.40632 20.1849 4.4903 20.4128 4.4903 20.6407ZM4.4987 31.7015C4.4987 31.9295 4.41472 32.1574 4.23477 32.3373L3.49099 33.0811C3.32167 33.2484 3.09322 33.3423 2.85517 33.3423C2.61713 33.3423 2.38867 33.2484 2.21936 33.0811C1.87146 32.7332 1.87146 32.1574 2.21936 31.8095L2.96314 31.0657C3.31104 30.7178 3.88687 30.7178 4.23477 31.0657C4.41472 31.2457 4.4987 31.4736 4.4987 31.7015Z" fill="white"/>
<path d="M33.973 26.1711C33.973 26.663 34.3809 27.0709 34.8728 27.0709H36.6003C37.0921 27.0709 37.5 26.663 37.5 26.1711C37.5 25.6793 37.0921 25.2714 36.6003 25.2714H34.8728C34.3809 25.2714 33.973 25.6793 33.973 26.1711ZM33.0097 20.6407C33.0097 20.8687 33.0937 21.0966 33.2736 21.2765C33.4429 21.4439 33.6714 21.5377 33.9094 21.5377C34.1475 21.5377 34.3759 21.4439 34.5453 21.2765L35.289 20.5328C35.6369 20.1849 35.6369 19.609 35.289 19.2611C34.9411 18.9132 34.3653 18.9132 34.0174 19.2611L33.2736 20.0049C33.0937 20.1849 33.0097 20.4128 33.0097 20.6407ZM33.0013 31.7015C33.0013 31.9295 33.0853 32.1574 33.2652 32.3373L34.009 33.0811C34.1783 33.2484 34.4068 33.3423 34.6448 33.3423C34.8829 33.3423 35.1113 33.2484 35.2806 33.0811C35.6285 32.7332 35.6285 32.1574 35.2806 31.8095L34.5369 31.0657C34.189 30.7178 33.6131 30.7178 33.2652 31.0657C33.0853 31.2457 33.0013 31.4736 33.0013 31.7015Z" fill="white"/>
<path d="M12.815 28.63C13.8215 28.63 14.63 27.8215 14.63 26.815C14.63 25.8085 13.8215 25 12.815 25C11.8085 25 11 25.8085 11 26.815C11 27.8215 11.8085 28.63 12.815 28.63ZM18.7534 28.63C19.7599 28.63 20.5684 27.8215 20.5684 26.815C20.5684 25.8085 19.7599 25 18.7534 25C17.7469 25 16.9384 25.8085 16.9384 26.815C16.9384 27.8215 17.7469 28.63 18.7534 28.63ZM24.6933 28.63C25.6998 28.63 26.5084 27.8215 26.5084 26.815C26.5084 25.8085 25.6998 25 24.6933 25C23.6868 25 22.8784 25.8085 22.8784 26.815C22.8784 27.8215 23.6868 28.63 24.6933 28.63Z" fill="white"/>
<rect x="7" y="22" width="23" height="10" rx="5" stroke="white" stroke-width="2"/>
</svg>
