<svg width="100%" height="100%" viewBox="0 0 27 19" fill="none" xmlns="http://www.w3.org/2000/svg">
<path d="M9.27378 0H17.2457C17.686 0 18.043 0.356924 18.043 0.797221V8.47656H25.7173C26.1604 8.47656 26.5195 8.83349 26.5195 9.27378V17.2457C26.5195 17.686 26.1604 18.043 25.7173 18.043H17.6948C17.616 18.043 17.5398 18.0316 17.4678 18.0106C17.394 18.0321 17.3176 18.043 17.2407 18.043H9.21826C9.15039 18.043 9.08445 18.0346 9.02148 18.0188C8.95852 18.0346 8.89258 18.043 8.82471 18.043H0.802246C0.359164 18.043 0 17.686 0 17.2457V9.27378C0 8.83349 0.359164 8.47656 0.802246 8.47656H8.47656V0.797221C8.47656 0.356924 8.83349 0 9.27378 0ZM9.6232 1.14664V8.41977H16.8963V1.14664H9.6232ZM11.1606 3.05859L11.9021 6.55232H12.7755L13.2337 4.56057L13.7017 6.55232H14.5727L15.3142 3.05859H14.4815L14.0801 5.25081L13.5913 3.05859H12.8763L12.3973 5.24548L11.9956 3.05859H11.1606ZM8.41602 9.6232H1.1539V16.8963H8.41602V9.6232ZM9.62695 16.8963H16.8891V9.6232H9.62695V16.8963ZM6.49214 15.0289L5.19298 11.5351H4.39371L3.10188 15.0289H4.0122L4.21497 14.3763H5.37602L5.57933 15.0289H6.49214ZM5.17349 13.726H4.41695L4.79471 12.5101L5.17349 13.726ZM13.7277 14.1003C13.7277 14.0459 13.7197 13.9971 13.7036 13.9539C13.6875 13.9091 13.6577 13.8675 13.6143 13.8291C13.5708 13.7908 13.508 13.7523 13.4259 13.7139C13.3454 13.674 13.2392 13.6324 13.1072 13.5892C12.9555 13.5391 12.8064 13.4814 12.6605 13.4164C12.5172 13.3508 12.3892 13.2748 12.2765 13.1884C12.1638 13.1005 12.0745 12.9981 12.0085 12.8813C11.9424 12.7629 11.9094 12.6254 11.9094 12.4686C11.9094 12.3182 11.9433 12.1831 12.0109 12.0631C12.0785 11.9415 12.1727 11.8383 12.2934 11.7535C12.4157 11.6671 12.5591 11.6016 12.7233 11.5568C12.8875 11.5104 13.0669 11.4872 13.2617 11.4872C13.5193 11.4872 13.7463 11.532 13.9427 11.6215C14.1407 11.7095 14.2952 11.8351 14.4063 11.9983C14.519 12.1599 14.5753 12.351 14.5753 12.5718H13.7326C13.7326 12.4838 13.714 12.4062 13.6771 12.339C13.6416 12.2718 13.5877 12.219 13.5153 12.1806C13.4428 12.1423 13.3519 12.1231 13.2424 12.1231C13.1361 12.1231 13.0468 12.139 12.9743 12.1711C12.9019 12.203 12.8472 12.2462 12.8101 12.3006C12.7737 12.3517 12.7543 12.413 12.7546 12.4758C12.7546 12.5286 12.7691 12.5766 12.7981 12.6198C12.8287 12.6614 12.8714 12.7006 12.9261 12.7374C12.9824 12.7741 13.05 12.8093 13.1289 12.8429C13.2176 12.8795 13.3079 12.9123 13.3994 12.9413C13.5861 13.0005 13.7519 13.0669 13.8968 13.1405C14.0433 13.2124 14.1665 13.2948 14.2662 13.3876C14.3677 13.4788 14.4441 13.5828 14.4956 13.6996C14.5487 13.8163 14.5753 13.9483 14.5753 14.0955C14.5753 14.2523 14.5448 14.3914 14.4836 14.513C14.4224 14.6345 14.3347 14.7378 14.2203 14.8225C14.1061 14.9057 13.9693 14.9689 13.8098 15.0121C13.6505 15.0553 13.4726 15.0769 13.2762 15.0769C13.0959 15.0769 12.918 15.0545 12.7426 15.0097C12.5687 14.9633 12.411 14.8929 12.2693 14.7986C12.129 14.7041 12.0125 14.5784 11.9288 14.4314C11.8451 14.2811 11.8033 14.1027 11.8033 13.8963H12.6532C12.6532 13.9987 12.6669 14.0851 12.6943 14.1554C12.7216 14.2259 12.7619 14.2826 12.815 14.3258C12.8681 14.3674 12.9333 14.3978 13.0106 14.417C13.0879 14.4346 13.1764 14.4434 13.2762 14.4434C13.3841 14.4434 13.471 14.4282 13.537 14.3978C13.603 14.3658 13.6513 14.3242 13.6819 14.273C13.7124 14.2206 13.7282 14.1609 13.7277 14.1003ZM18.0465 16.8963H25.3656V9.6232H18.0465V16.8963ZM21.4823 15.0289C21.7174 15.0289 21.933 14.9889 22.1295 14.9089C22.3274 14.8273 22.4989 14.7122 22.6438 14.5634C22.7887 14.4146 22.9006 14.2378 22.9795 14.0331C23.0599 13.8283 23.1002 13.6028 23.1002 13.3564V13.2101C23.1002 12.9621 23.0599 12.7365 22.9795 12.5334C22.9006 12.3286 22.7879 12.1519 22.6414 12.0031C22.4965 11.8527 22.3242 11.7376 22.1246 11.6576C21.9266 11.576 21.7085 11.5351 21.4702 11.5351H20.3402V15.0289H21.4823ZM21.1877 14.381V12.1854H21.4702C21.5942 12.1854 21.7037 12.207 21.7986 12.2502C21.8946 12.2929 21.9779 12.36 22.0402 12.4446C22.1045 12.5294 22.1528 12.6358 22.185 12.7637C22.2188 12.8901 22.2357 13.0373 22.2357 13.2053V13.3564C22.2357 13.5804 22.2059 13.7691 22.1464 13.9227C22.0884 14.0747 22.0031 14.189 21.8904 14.2659C21.7793 14.3426 21.6433 14.381 21.4823 14.381H21.1877Z" fill="white"/>
</svg>
