<svg width="40" height="26" viewBox="0 0 40 26" fill="none" xmlns="http://www.w3.org/2000/svg">
<path d="M25.42 13.0559C25.71 13.2814 25.9141 13.5526 26.0322 13.8695C26.1504 14.1864 26.1987 14.5166 26.1772 14.8604C26.1557 15.2041 26.0806 15.5478 25.9517 15.8915C25.8228 16.2352 25.6563 16.5467 25.4522 16.826C25.087 17.3308 24.6735 17.7605 24.2116 18.1149C23.7497 18.4694 23.2717 18.7648 22.7777 19.0011C22.2836 19.2374 21.7868 19.4227 21.2873 19.5569C20.7879 19.6912 20.3179 19.7905 19.8776 19.855C19.4372 19.9194 19.0424 19.9597 18.6933 19.9758C18.3443 19.9919 18.073 20 17.8797 20C17.6864 20 17.4286 19.9866 17.1063 19.9597C16.7841 19.9329 16.427 19.8792 16.0349 19.7986C15.6429 19.718 15.232 19.6053 14.8024 19.4603C14.3727 19.3153 13.9538 19.1246 13.5457 18.8883C13.1375 18.652 12.7481 18.362 12.3776 18.0183C12.007 17.6745 11.6928 17.261 11.435 16.7777C11.2632 16.4662 11.1477 16.1332 11.0886 15.7787C11.0295 15.4243 11 14.9731 11 14.4253C11 14.189 11.0403 13.9205 11.1208 13.6198C11.2014 13.319 11.3437 12.986 11.5478 12.6208C11.7519 12.2556 12.0311 11.8582 12.3856 11.4286C12.7401 10.9989 13.1912 10.5263 13.739 10.0107C14.276 9.50591 14.8319 9.05747 15.4066 8.66541C15.9812 8.27336 16.5961 7.96992 17.2513 7.7551C17.5521 7.64769 17.8851 7.58861 18.2503 7.57787C18.6155 7.56713 18.9162 7.62621 19.1525 7.7551C19.2599 7.87325 19.362 7.99409 19.4586 8.11762C19.5553 8.24114 19.6198 8.3942 19.652 8.5768C19.6842 8.72717 19.6869 8.87218 19.66 9.01182C19.6332 9.15145 19.6037 9.29108 19.5714 9.43072C19.5392 9.57035 19.5124 9.70462 19.4909 9.83351C19.4694 9.96241 19.4801 10.0806 19.5231 10.188C19.7057 10.2095 19.8829 10.2014 20.0548 10.1638C20.2266 10.1262 20.3931 10.0779 20.5542 10.0188C20.7154 9.95972 20.8792 9.89796 21.0456 9.83351C21.2121 9.76907 21.3867 9.72073 21.5693 9.68851C21.8593 9.6348 22.1466 9.61063 22.4313 9.616C22.7159 9.62137 22.9737 9.66165 23.2046 9.73684C23.4356 9.81203 23.6262 9.9275 23.7766 10.0832C23.927 10.239 24.0183 10.4404 24.0505 10.6874C24.072 10.8378 24.0612 10.9774 24.0183 11.1063C23.9753 11.2352 23.9296 11.3561 23.8813 11.4689C23.833 11.5816 23.7954 11.6971 23.7685 11.8153C23.7417 11.9334 23.7497 12.0569 23.7927 12.1858C23.8249 12.261 23.9028 12.3308 24.0263 12.3953C24.1498 12.4597 24.2922 12.5242 24.4533 12.5886C24.6144 12.6531 24.7836 12.7229 24.9608 12.7981C25.138 12.8733 25.2911 12.9592 25.42 13.0559ZM21.3598 18.0666C21.6391 17.8947 21.9211 17.6584 22.2057 17.3577C22.4903 17.0569 22.7213 16.7213 22.8985 16.3507C23.0757 15.9801 23.1751 15.5827 23.1966 15.1584C23.218 14.7342 23.1106 14.3072 22.8743 13.8776C22.6702 13.5231 22.4205 13.2223 22.1251 12.9753C21.8298 12.7282 21.4995 12.5322 21.1343 12.3872C20.7691 12.2422 20.3797 12.1375 19.9662 12.073C19.5526 12.0086 19.131 11.9764 18.7014 11.9764C17.8743 11.9764 17.1412 12.0623 16.5021 12.2342C15.8631 12.406 15.3099 12.6316 14.8426 12.9108C14.3754 13.1901 13.9968 13.507 13.7068 13.8614C13.4168 14.2159 13.2127 14.5757 13.0945 14.9409C12.9764 15.2954 12.9415 15.6472 12.9898 15.9962C13.0381 16.3453 13.1482 16.6756 13.3201 16.9871C13.4919 17.2986 13.7148 17.5779 13.9887 17.8249C14.2626 18.072 14.5661 18.2707 14.899 18.4211C15.5113 18.6896 16.1369 18.8588 16.776 18.9286C17.4151 18.9984 18.0247 19.0011 18.6047 18.9366C19.1847 18.8722 19.7137 18.7594 20.1917 18.5983C20.6697 18.4372 21.0591 18.2599 21.3598 18.0666ZM19.2492 12.9753C19.464 13.0612 19.6681 13.1579 19.8614 13.2653C20.0548 13.3727 20.2266 13.5177 20.377 13.7003C20.4844 13.8292 20.5784 13.9903 20.659 14.1837C20.7395 14.377 20.7959 14.5838 20.8281 14.804C20.8604 15.0242 20.8684 15.247 20.8523 15.4726C20.8362 15.6982 20.7852 15.9023 20.6992 16.0849C20.6133 16.2782 20.5086 16.4742 20.3851 16.6729C20.2615 16.8716 20.1112 17.0569 19.9339 17.2288C19.7567 17.4006 19.5446 17.5537 19.2975 17.688C19.0505 17.8222 18.7497 17.9216 18.3953 17.986C17.7508 18.1042 17.1332 18.0451 16.5424 17.8088C15.9517 17.5725 15.4898 17.1805 15.1568 16.6327C15.0279 16.2137 14.9581 15.8432 14.9474 15.5209C14.9366 15.1987 15.0226 14.8496 15.2052 14.4737C15.3448 14.1837 15.5569 13.9125 15.8416 13.66C16.1262 13.4076 16.4538 13.2035 16.8244 13.0478C17.195 12.8921 17.5897 12.8008 18.0086 12.7739C18.4275 12.747 18.841 12.8142 19.2492 12.9753ZM16.6874 16.9388C17.0849 16.971 17.3883 16.8743 17.5977 16.6488C17.8072 16.4232 17.92 16.1708 17.9361 15.8915C17.9522 15.6122 17.8716 15.3625 17.6944 15.1423C17.5172 14.9221 17.2406 14.8335 16.8647 14.8765C16.5747 14.9087 16.3491 15.0322 16.188 15.247C16.0269 15.4619 15.9356 15.6901 15.9141 15.9318C15.8926 16.1735 15.9436 16.3963 16.0671 16.6004C16.1907 16.8045 16.3974 16.9173 16.6874 16.9388ZM23.2771 5C24.0612 5 24.7943 5.10473 25.4764 5.31418C26.1584 5.52363 26.7546 5.82707 27.2648 6.22449C27.775 6.62191 28.1751 7.10526 28.4651 7.67454C28.7551 8.24382 28.9001 8.88829 28.9001 9.60795C28.9001 9.96241 28.8142 10.2282 28.6423 10.4055C28.4705 10.5827 28.2852 10.674 28.0865 10.6794C27.8878 10.6847 27.7025 10.6096 27.5306 10.4538C27.3588 10.2981 27.2728 10.0591 27.2728 9.73684C27.2728 9.3072 27.1547 8.89903 26.9184 8.51235C26.6821 8.12567 26.3706 7.78733 25.9839 7.49731C25.5972 7.2073 25.1541 6.97905 24.6547 6.81257C24.1552 6.64608 23.6477 6.56284 23.1321 6.56284C22.7991 6.56284 22.5521 6.48228 22.391 6.32116C22.2299 6.16004 22.1547 5.98013 22.1654 5.78142C22.1762 5.58271 22.2755 5.40279 22.4635 5.24168C22.6515 5.08056 22.9227 5 23.2771 5ZM23.2771 7.57787C24.276 7.57787 25.0333 7.83298 25.5489 8.34318C26.0644 8.85338 26.3222 9.62406 26.3222 10.6552C26.3222 10.9774 26.2685 11.2057 26.1611 11.34C26.0537 11.4742 25.9356 11.5333 25.8067 11.5172C25.6778 11.5011 25.5596 11.4232 25.4522 11.2836C25.3448 11.1439 25.2911 10.956 25.2911 10.7197C25.2911 10.0859 25.1085 9.5811 24.7433 9.20516C24.3781 8.82922 23.8894 8.64125 23.2771 8.64125C23.073 8.64125 22.9227 8.58485 22.826 8.47207C22.7293 8.35929 22.681 8.23845 22.681 8.10956C22.681 7.98067 22.732 7.85983 22.834 7.74705C22.9361 7.63426 23.0838 7.57787 23.2771 7.57787Z" fill="white"/>
</svg>
