<svg width="100%" height="100%" viewBox="0 0 44 32" fill="none" xmlns="http://www.w3.org/2000/svg">
<path d="M33.0959 16.0792C33.0959 14.0024 32.5239 12.0576 31.5295 10.3944C30.9751 9.47043 30.2887 8.61683 29.4791 7.87763L29.0655 7.49923L29.0479 7.50803C27.1295 5.92403 24.6743 4.97363 21.9991 4.97363C19.3239 4.97363 16.8687 5.92403 14.9503 7.50803L14.9327 7.49923L14.5191 7.87763C13.7095 8.61683 13.0231 9.47043 12.4687 10.3944C11.4743 12.0576 10.9023 14.0024 10.9023 16.0792C10.9023 18.156 11.4743 20.092 12.4687 21.7552C13.0231 22.688 13.7095 23.5328 14.5191 24.272L14.9327 24.6504L14.9503 24.6416C16.8687 26.2256 19.3239 27.176 21.9991 27.176C24.6743 27.176 27.1295 26.2256 29.0479 24.6416L29.0655 24.6504L29.4791 24.272C30.2887 23.5328 30.9751 22.6792 31.5295 21.7552C32.5239 20.1008 33.0959 18.156 33.0959 16.0792ZM30.6055 20.8928C30.5791 20.9456 30.5439 20.9984 30.5175 21.0512C30.4999 21.0776 30.4823 21.1128 30.4647 21.1392C30.4471 21.1656 30.4295 21.192 30.4119 21.2184C30.3767 21.2712 30.3415 21.3328 30.3063 21.3856C30.3063 21.3856 30.3063 21.3856 30.3063 21.3944C29.9367 21.9664 29.5143 22.5032 29.0391 22.9872C28.1239 22.2304 27.0943 21.632 26.0031 21.2096C26.2935 19.7664 26.4519 18.1824 26.4871 16.616H31.8551C31.7759 18.1208 31.3447 19.5728 30.6231 20.8752C30.6143 20.884 30.6055 20.884 30.6055 20.8928ZM13.6919 21.3944C13.6567 21.3416 13.6215 21.28 13.5863 21.2272C13.5687 21.2008 13.5511 21.1744 13.5423 21.148C13.5247 21.1128 13.5071 21.0864 13.4895 21.0512C13.4631 20.9984 13.4279 20.9456 13.4015 20.8928C13.4015 20.884 13.3927 20.884 13.3927 20.8752C12.6711 19.5728 12.2399 18.1208 12.1607 16.616H17.5287C17.5551 18.1824 17.7223 19.7664 18.0127 21.2096C16.9215 21.632 15.8919 22.2304 14.9767 22.9872C14.4839 22.4944 14.0615 21.9664 13.6919 21.3944ZM13.3927 11.2656C13.4191 11.2128 13.4543 11.16 13.4807 11.1072C13.4983 11.0808 13.5159 11.0456 13.5335 11.0192C13.5511 10.9928 13.5687 10.9664 13.5863 10.94C13.6215 10.8872 13.6567 10.8256 13.6919 10.7728C14.0615 10.2008 14.4839 9.66403 14.9591 9.18003C15.8743 9.93683 16.9039 10.5352 17.9951 10.9576C17.7135 12.348 17.5551 13.8704 17.5199 15.3928H12.1607C12.2663 13.9496 12.6887 12.5504 13.3839 11.292C13.3839 11.2744 13.3927 11.2744 13.3927 11.2656ZM30.3063 10.764C30.3415 10.8256 30.3767 10.8784 30.4119 10.9312C30.4295 10.9576 30.4471 10.984 30.4647 11.0104C30.4823 11.0368 30.4999 11.072 30.5175 11.0984C30.5439 11.1512 30.5791 11.204 30.6055 11.2568C30.6055 11.2656 30.6143 11.2656 30.6143 11.2744C31.3095 12.524 31.7319 13.932 31.8375 15.3752H26.4783C26.4431 13.8616 26.2759 12.3392 26.0031 10.94C27.0943 10.5176 28.1239 9.91923 29.0391 9.16243C29.5143 9.66403 29.9367 10.192 30.3063 10.764ZM18.7519 15.384C18.7871 13.9056 18.9455 12.5328 19.1831 11.336C20.0983 11.5736 21.0399 11.6968 21.9991 11.6968C22.9583 11.6968 23.9087 11.5736 24.8151 11.336C25.0527 12.5416 25.2023 13.9056 25.2463 15.384H18.7519ZM25.2463 16.616C25.2199 18.156 25.0615 19.5816 24.8151 20.8312C23.8999 20.5936 22.9583 20.4704 21.9991 20.4704C21.0399 20.4704 20.0895 20.5936 19.1831 20.8312C18.9367 19.5816 18.7783 18.156 18.7519 16.616H25.2463ZM25.7127 9.73443C25.3695 8.44963 24.9119 7.33203 24.3487 6.49603C25.7391 6.83923 27.0151 7.47283 28.1063 8.33523C27.3759 8.92483 26.5663 9.39123 25.7127 9.73443ZM24.5423 10.1304C23.7239 10.3504 22.8703 10.4648 21.9991 10.4648C21.1367 10.4648 20.2831 10.3504 19.4559 10.1304C20.0983 7.71923 21.0839 6.21443 21.9991 6.21443C22.9143 6.21443 23.8999 7.71923 24.5423 10.1304ZM18.2855 9.73443C17.4319 9.39123 16.6223 8.91603 15.8919 8.34403C16.9831 7.48163 18.2591 6.83923 19.6495 6.50483C19.0863 7.33203 18.6287 8.44963 18.2855 9.73443ZM18.2855 22.424C18.6287 23.7088 19.0863 24.8264 19.6495 25.6624C18.2591 25.3192 16.9831 24.6856 15.8919 23.8232C16.6223 23.2424 17.4319 22.7672 18.2855 22.424ZM19.4559 22.028C20.2743 21.808 21.1279 21.6936 21.9991 21.6936C22.8615 21.6936 23.7151 21.808 24.5423 22.028C23.8999 24.4392 22.9143 25.944 21.9991 25.944C21.0839 25.944 20.0983 24.4392 19.4559 22.028ZM25.7127 22.424C26.5663 22.7672 27.3759 23.2424 28.1063 23.8144C27.0151 24.6768 25.7391 25.3192 24.3487 25.6536C24.9119 24.8264 25.3695 23.7088 25.7127 22.424Z" fill="#E8EBED"/>
</svg>
